<!DOCTYPE svg PUBLIC "-//W3C//DTD SVG 20010904//EN" "http://www.w3.org/TR/2001/REC-SVG-20010904/DTD/svg10.dtd">
<svg version="1.0" xmlns="http://www.w3.org/2000/svg" width="512px" height="512px" viewBox="0 0 12000 12000" >
<g id="layer101" fill="#00465a" stroke="none">
 <path d="M0 4995 l0 -4995 6000 0 6000 0 0 4995 0 4995 -6000 0 -6000 0 0 -4995z"/>
 </g>
<g id="layer102" fill="#0b5568" stroke="none">
 <path d="M0 4995 l0 -4995 6000 0 6000 0 0 4995 0 4995 -6000 0 -6000 0 0 -4995z m6825 4626 c6 -3 53 -7 105 -8 148 -4 194 -7 208 -16 7 -5 35 -6 63 -2 33 5 54 3 64 -5 9 -8 29 -9 54 -5 25 4 41 2 46 -5 4 -6 24 -10 44 -9 20 2 42 -1 49 -5 7 -4 50 -9 95 -11 45 -1 102 -8 126 -15 24 -6 55 -9 68 -5 14 3 31 1 39 -6 7 -6 21 -8 30 -5 9 4 23 1 30 -5 8 -6 20 -9 29 -6 8 4 17 2 21 -4 3 -6 16 -9 27 -8 12 1 29 -1 38 -5 9 -4 20 -6 25 -5 5 1 16 0 24 -4 29 -11 140 -28 149 -23 5 3 23 -1 40 -10 18 -9 39 -13 48 -10 8 4 22 1 30 -5 7 -7 16 -9 20 -6 3 4 11 3 17 -2 6 -5 72 -23 146 -41 330 -79 612 -189 808 -316 45 -30 84 -54 86 -54 1 0 25 -20 52 -45 27 -25 52 -45 56 -45 11 0 138 -130 138 -140 0 -5 14 -20 30 -33 17 -14 30 -28 30 -31 0 -4 20 -34 44 -69 57 -81 91 -149 132 -266 19 -53 37 -103 41 -111 3 -8 5 -23 4 -32 -1 -10 3 -27 9 -38 6 -11 13 -45 15 -75 2 -31 7 -61 12 -68 4 -6 6 -24 4 -39 -1 -14 3 -29 9 -33 7 -4 9 -21 5 -45 -4 -24 -2 -41 5 -45 7 -5 9 -33 4 -89 -4 -58 -3 -85 5 -90 14 -9 14 -83 0 -92 -8 -5 -9 -32 -5 -90 5 -57 3 -84 -5 -89 -6 -4 -9 -19 -5 -36 3 -15 1 -31 -5 -35 -6 -3 -9 -16 -7 -27 1 -12 -1 -28 -5 -34 -4 -7 -9 -27 -11 -45 -2 -18 -9 -46 -15 -61 -6 -16 -11 -32 -11 -38 0 -21 -78 -203 -135 -314 -34 -66 -105 -194 -159 -284 -102 -172 -216 -390 -216 -413 0 -8 -4 -18 -9 -23 -16 -18 -72 -199 -77 -248 -2 -27 -7 -54 -11 -60 -8 -13 -16 -193 -14 -327 0 -52 1 -110 1 -128 0 -19 6 -59 13 -90 16 -69 15 -427 -2 -499 -6 -27 -11 -64 -10 -83 0 -44 -5 -80 -16 -103 -4 -10 -5 -21 -1 -24 3 -3 1 -12 -4 -19 -6 -6 -12 -28 -14 -46 -2 -19 -5 -39 -8 -44 -12 -21 -30 -105 -24 -111 3 -3 2 -11 -3 -17 -5 -6 -27 -67 -50 -136 -23 -69 -45 -134 -50 -145 -5 -11 -26 -60 -46 -110 -75 -179 -241 -491 -347 -647 -21 -31 -38 -61 -38 -67 0 -5 -3 -11 -7 -13 -5 -1 -34 -41 -65 -88 -83 -124 -121 -177 -413 -577 -195 -266 -303 -427 -465 -688 -136 -220 -232 -367 -322 -492 -32 -44 -58 -84 -58 -87 0 -3 -10 -16 -22 -29 -51 -53 -128 -146 -128 -154 0 -4 -9 -14 -20 -21 -32 -20 -23 -38 27 -57 60 -23 138 -100 148 -146 4 -18 13 -41 19 -51 8 -13 8 -23 0 -36 -7 -10 -15 -38 -19 -62 -9 -55 -45 -128 -85 -173 -16 -19 -30 -40 -30 -46 0 -6 -6 -11 -14 -11 -8 0 -23 -10 -33 -23 -18 -23 -112 -67 -142 -67 -10 0 -22 -5 -28 -11 -7 -7 -17 -7 -29 -1 -11 5 -31 15 -46 21 -42 16 -84 82 -108 173 -12 46 -25 87 -28 92 -3 6 -6 20 -7 33 -2 44 -17 45 -96 9 -42 -19 -111 -47 -155 -61 -43 -14 -86 -29 -94 -32 -8 -3 -26 -7 -40 -8 -36 -4 -153 -26 -170 -32 -8 -3 -29 -5 -46 -4 -18 1 -35 -2 -38 -8 -4 -5 -22 -7 -41 -4 -19 3 -40 1 -47 -5 -15 -11 -312 -9 -341 3 -10 4 -33 5 -52 2 -19 -3 -37 -1 -41 4 -3 6 -18 9 -32 8 -15 -1 -34 0 -42 3 -8 3 -58 13 -110 23 -165 31 -405 121 -504 191 -11 8 -26 14 -33 14 -6 0 -23 -37 -37 -83 -14 -46 -37 -100 -51 -121 -14 -20 -25 -40 -25 -44 0 -14 -66 -32 -119 -32 -31 0 -67 8 -89 19 -84 43 -188 191 -207 294 -4 20 -11 40 -16 43 -12 7 -12 101 0 108 5 3 12 18 16 33 15 62 109 141 158 134 27 -4 20 19 -31 99 -78 123 -140 251 -183 382 -22 68 -43 130 -46 138 -3 8 -5 22 -4 32 1 9 -3 19 -8 22 -6 4 -8 13 -4 21 3 8 2 23 -2 33 -4 9 -7 33 -6 53 1 21 -2 40 -8 44 -15 9 -15 182 0 191 7 4 9 22 6 45 -3 22 -1 42 4 45 6 3 9 13 8 22 -1 10 1 25 6 35 4 10 5 21 1 24 -3 3 -2 11 3 17 5 6 19 40 31 75 30 91 83 195 135 264 41 56 162 187 171 187 7 0 114 80 114 85 0 11 -102 145 -111 145 -5 0 -9 6 -9 13 0 6 -49 80 -108 164 -187 265 -568 841 -687 1038 -26 44 -91 143 -143 220 -296 435 -368 544 -449 680 -106 176 -189 344 -232 470 -18 50 -34 97 -37 105 -4 8 -8 30 -10 48 -2 18 -6 38 -11 45 -4 6 -6 24 -4 39 1 15 0 32 -4 38 -9 14 -8 330 0 353 4 10 5 31 2 47 -4 16 -2 32 4 36 6 3 9 15 6 25 -3 10 -1 22 5 25 5 3 7 17 4 29 -3 13 -2 26 3 29 5 3 15 30 21 58 25 105 72 226 122 311 15 26 28 53 28 59 0 6 -31 65 -69 132 -38 66 -83 148 -101 181 -105 193 -191 325 -211 325 -5 0 -9 5 -9 12 0 6 -32 42 -70 79 -50 49 -70 75 -70 93 0 49 73 241 116 308 10 15 15 30 12 33 -10 11 -49 -19 -43 -33 3 -7 0 -10 -5 -7 -15 9 -49 -34 -184 -236 -69 -102 -148 -211 -176 -242 -58 -63 -161 -121 -235 -133 -25 -3 -48 -10 -51 -15 -7 -12 -111 -12 -118 0 -3 4 -20 11 -38 14 -39 6 -144 53 -153 68 -4 5 -18 14 -31 19 -14 6 -28 18 -32 27 -4 10 -20 37 -35 59 -28 42 -77 170 -77 203 0 10 -3 21 -7 24 -9 10 -9 248 0 254 5 3 7 15 6 26 -1 12 1 29 5 38 4 9 6 20 5 25 -1 5 0 16 3 24 3 8 20 62 38 120 17 58 52 145 77 195 47 96 162 275 175 275 4 0 8 4 8 9 0 9 68 81 76 81 2 0 30 20 61 44 34 26 89 55 133 70 41 15 82 29 90 33 8 3 19 5 24 4 5 -1 16 1 25 5 9 4 27 8 41 10 14 1 52 6 85 10 77 10 282 10 410 0 55 -4 125 -9 155 -11 129 -10 258 -14 455 -15 l211 -1 73 36 c76 38 199 86 286 112 28 8 55 19 61 24 6 5 13 7 16 4 2 -3 27 1 54 9 27 8 77 20 112 27 34 6 65 15 67 19 3 5 14 6 24 3 10 -3 22 0 25 6 4 6 18 8 31 5 12 -3 26 -1 30 5 3 6 17 8 30 5 12 -3 26 -1 30 5 3 6 17 8 30 5 12 -3 26 -1 30 5 3 6 17 8 31 5 13 -3 32 -3 41 1 27 12 54 16 102 15 24 0 48 3 53 6 6 4 47 8 91 10 44 3 86 9 92 14 7 6 26 7 44 4 18 -4 37 -2 45 5 10 8 30 10 60 6 29 -5 51 -3 59 4 8 6 38 11 68 11 88 1 213 6 224 9 6 2 176 3 380 3 l370 -1 60 58 c63 60 157 117 187 112 10 -1 26 3 35 8 19 12 361 14 378 2z"/>
 <path d="M5393 9357 c-3 -6 -40 -7 -94 -2 -49 3 -94 3 -101 -1 -6 -4 -33 -6 -60 -5 -26 1 -53 -1 -60 -5 -7 -4 -31 -7 -54 -5 -23 1 -45 -2 -48 -7 -3 -5 -25 -7 -50 -5 -24 3 -46 1 -50 -5 -3 -6 -23 -8 -45 -5 -22 3 -41 1 -45 -6 -4 -6 -19 -8 -35 -5 -16 3 -32 1 -35 -5 -4 -6 -24 -8 -50 -5 -26 4 -46 2 -50 -4 -4 -6 -13 -9 -21 -5 -9 3 -21 0 -29 -6 -7 -6 -20 -9 -28 -6 -27 11 -396 -60 -432 -82 -5 -3 -23 -7 -41 -9 -46 -4 -286 -94 -391 -147 -111 -56 -264 -157 -298 -197 -13 -17 -29 -30 -34 -30 -13 0 -106 -106 -161 -183 -56 -80 -130 -234 -136 -287 -1 -8 -8 -28 -15 -45 -11 -28 -20 -89 -24 -160 0 -16 -4 -35 -8 -40 -7 -11 -2 -191 7 -285 3 -30 6 -66 6 -80 0 -14 2 -32 5 -40 4 -8 8 -32 9 -54 2 -21 8 -43 13 -48 6 -6 8 -16 6 -22 -3 -7 1 -26 7 -42 7 -16 12 -32 11 -36 -1 -4 3 -20 10 -35 6 -15 10 -32 9 -36 0 -4 4 -18 11 -30 7 -12 11 -26 10 -30 -3 -10 45 -146 57 -162 4 -5 13 -29 21 -52 7 -24 16 -43 19 -42 6 0 15 6 112 70 30 19 72 43 94 51 26 10 40 22 41 34 0 11 4 27 9 37 4 10 5 33 2 52 -3 19 -1 37 5 41 5 3 8 18 5 32 -3 14 -1 33 3 41 5 9 18 42 30 74 50 129 131 141 298 43 29 -17 82 -67 82 -78 0 -13 103 -158 113 -158 4 0 6 -4 3 -9 -3 -4 6 -33 21 -62 14 -30 36 -83 49 -118 l23 -64 153 0 c84 0 188 3 232 6 l78 5 121 158 c66 88 152 209 190 269 38 61 84 129 103 152 19 23 34 45 34 50 0 11 43 53 53 53 3 0 26 13 49 30 24 16 72 37 107 46 114 29 161 -5 195 -140 14 -52 30 -65 64 -50 9 4 21 6 26 5 5 -1 16 1 25 5 20 10 67 14 154 14 37 -1 72 2 78 6 16 9 250 10 256 1 3 -5 51 -8 107 -7 55 1 121 -1 146 -5 25 -3 59 -7 75 -8 17 -1 36 -6 43 -10 7 -5 21 -5 33 -2 11 4 26 1 34 -5 8 -7 21 -10 29 -7 7 3 18 1 23 -4 5 -5 27 -10 48 -13 22 -2 47 -6 55 -9 27 -10 116 -28 126 -26 5 1 22 -3 38 -10 16 -6 43 -13 60 -16 17 -2 33 -5 36 -6 3 -1 10 -3 15 -4 6 -1 17 -5 25 -8 8 -4 76 -25 150 -47 74 -23 161 -50 192 -61 56 -20 78 -19 78 3 0 5 -7 7 -16 4 -8 -3 -13 -2 -10 3 3 5 -19 32 -49 59 -30 28 -55 53 -55 56 0 9 -292 370 -332 409 -21 21 -38 42 -38 45 0 10 -183 192 -193 192 -4 0 -20 14 -35 31 l-28 32 75 76 c53 53 89 100 119 157 23 45 42 86 42 93 0 16 -30 14 -36 -4 -6 -14 -93 -105 -101 -105 -2 0 -29 -19 -60 -41 -74 -55 -186 -106 -286 -130 -45 -11 -89 -23 -97 -26 -19 -6 -290 -7 -310 0 -8 3 -47 13 -87 22 -140 33 -228 89 -264 170 -29 67 -28 95 11 181 19 42 147 192 165 193 11 1 85 73 85 83 0 3 15 21 33 40 34 36 247 351 247 365 0 12 -700 12 -707 0z"/>
 <path d="M2065 8750 c-4 -6 -11 -8 -16 -4 -42 26 -219 -130 -185 -163 3 -4 1 -12 -5 -19 -19 -23 -1 -80 33 -109 37 -32 128 -79 136 -71 3 3 13 -1 23 -10 21 -19 111 -44 161 -44 91 0 124 40 122 151 -2 88 -9 122 -41 172 -32 50 -101 100 -130 92 -12 -3 -25 -1 -28 5 -8 13 -62 13 -70 0z"/>
 <path d="M1624 8083 c-21 -32 -28 -154 -10 -188 6 -11 9 -24 8 -29 -4 -13 19 -36 38 -36 19 0 46 43 36 58 -3 6 -2 14 4 17 6 4 10 14 9 23 -1 10 1 25 6 35 12 28 -13 125 -35 137 -28 15 -36 13 -56 -17z"/>
 <path d="M1887 8043 c-24 -27 -59 -112 -53 -128 3 -8 1 -17 -4 -20 -14 -9 -12 -65 3 -95 15 -29 53 -35 79 -13 21 19 52 98 44 112 -4 5 -2 12 4 16 14 9 12 85 -3 115 -16 31 -48 37 -70 13z"/>
 <path d="M2128 7922 c-44 -47 -60 -80 -65 -133 -5 -58 9 -83 41 -73 27 8 70 49 97 92 24 38 33 116 16 130 -25 18 -64 12 -89 -16z"/>
 <path d="M9871 7903 c1 -10 -3 -31 -10 -47 -6 -15 -10 -33 -9 -40 1 -6 -6 -28 -15 -50 -9 -21 -17 -40 -17 -43 0 -15 -50 -109 -90 -168 -160 -234 -472 -421 -844 -506 -50 -11 -98 -23 -106 -26 -8 -3 -25 -5 -37 -4 -11 1 -24 -2 -27 -7 -3 -6 -15 -8 -25 -5 -10 3 -22 0 -25 -6 -5 -7 -26 -9 -60 -5 -35 4 -56 3 -60 -5 -9 -14 -232 -15 -241 -1 -7 11 -95 11 -95 0 0 -8 236 -190 245 -190 3 0 21 -18 41 -40 20 -22 41 -40 46 -40 11 0 156 -144 173 -171 5 -9 36 -47 68 -85 136 -161 266 -380 353 -597 21 -53 42 -97 46 -97 11 0 21 47 15 65 -4 8 -2 17 4 21 6 3 9 16 7 27 -1 12 0 27 4 32 3 6 14 38 22 73 46 175 131 355 321 677 163 276 233 432 280 620 15 60 29 134 30 165 2 30 6 63 10 73 4 9 4 28 1 41 -3 14 -2 28 4 31 6 4 7 40 3 94 -4 61 -2 90 6 95 12 8 15 76 5 114 -7 26 -26 30 -23 5z"/>
 <path d="M5255 7790 c-4 -7 -18 -9 -32 -5 -46 11 -129 -53 -219 -170 -40 -52 -88 -135 -82 -141 3 -2 50 17 104 44 55 27 135 61 179 76 44 15 87 30 95 33 8 3 22 7 30 7 22 1 17 57 -11 114 -24 46 -50 64 -64 42z"/>
 <path d="M3602 7573 c-18 -7 -54 -82 -48 -99 3 -7 1 -16 -4 -19 -5 -3 -9 -18 -9 -33 0 -15 -2 -58 -4 -97 l-4 -70 51 -2 c75 -3 109 -7 124 -17 7 -4 16 -5 19 -2 3 3 12 1 19 -4 6 -6 16 -10 20 -9 5 1 31 -7 57 -19 27 -12 52 -22 56 -22 4 0 26 -9 49 -20 72 -35 76 -28 35 64 -93 212 -272 385 -361 349z"/>
 <path d="M4323 7009 c-8 -8 -44 -10 -107 -7 -102 4 -106 2 -83 -42 7 -14 11 -43 9 -65 -2 -22 2 -53 9 -70 7 -16 11 -36 10 -44 -1 -7 1 -20 5 -30 4 -9 8 -39 9 -68 1 -28 7 -58 13 -66 7 -7 9 -16 6 -20 -3 -3 -3 -14 0 -24 6 -18 16 -19 116 -18 61 1 114 5 118 9 4 4 8 51 8 104 1 53 5 105 9 115 4 9 5 23 2 31 -3 7 -2 17 3 22 8 9 50 155 50 174 0 14 -163 13 -177 -1z"/>
 <path d="M4544 6905 c-8 -21 -18 -61 -21 -89 -8 -79 -9 -85 -16 -92 -4 -4 -7 -26 -7 -49 0 -23 3 -45 7 -49 6 -6 9 -18 16 -71 3 -25 96 -77 146 -81 20 -2 52 -8 71 -14 44 -13 167 -13 175 0 3 5 12 7 20 3 8 -3 23 -2 32 2 10 4 37 9 59 10 46 3 141 43 191 81 31 24 93 116 93 140 0 15 -76 37 -101 29 -11 -4 -26 -1 -34 5 -8 7 -21 10 -30 7 -8 -4 -17 -1 -21 4 -3 6 -19 8 -35 5 -15 -3 -31 -1 -35 5 -4 6 -20 8 -39 5 -20 -4 -36 -2 -40 4 -4 6 -19 10 -33 9 -15 -1 -34 0 -42 3 -8 3 -53 13 -99 22 -103 20 -166 50 -199 96 -14 19 -29 39 -34 44 -4 5 -15 -8 -24 -29z"/>
 <path d="M4074 6719 c-3 -6 -85 -49 -180 -94 -96 -46 -174 -89 -174 -95 0 -6 -4 -9 -9 -6 -8 6 -119 -51 -148 -76 -7 -6 -13 -19 -13 -29 0 -23 68 -43 111 -34 17 4 35 2 42 -3 11 -9 107 -9 222 0 64 5 155 49 194 93 29 33 30 36 16 68 -8 19 -17 57 -21 86 -4 28 -10 54 -15 57 -4 2 -6 11 -3 18 7 17 -12 30 -22 15z"/>
 <path d="M5380 6670 c0 -18 -67 -115 -106 -153 -22 -21 -64 -50 -95 -65 -49 -23 -56 -30 -57 -56 0 -16 4 -39 10 -50 6 -11 11 -33 12 -50 1 -38 23 -51 61 -35 17 7 34 11 39 10 39 -9 215 105 256 167 34 51 64 140 55 164 -6 15 -135 78 -161 78 -8 0 -14 -4 -14 -10z"/>
 <path d="M5606 6504 c-24 -71 -61 -128 -113 -173 -58 -52 -207 -127 -268 -136 -25 -4 -48 -11 -51 -17 -3 -5 -15 -6 -25 -3 -11 4 -25 2 -32 -3 -7 -5 -30 -15 -52 -21 -22 -7 -47 -15 -55 -18 -8 -3 -53 -6 -100 -7 -72 -1 -92 2 -130 23 -25 13 -56 34 -71 47 -14 13 -29 24 -33 24 -4 0 -39 20 -77 45 l-70 45 -97 0 c-53 0 -106 -3 -117 -6 -11 -3 -35 -27 -54 -53 -19 -26 -57 -64 -85 -83 -51 -35 -160 -78 -199 -78 -22 0 -77 -16 -114 -33 -12 -5 -33 -7 -47 -3 -15 4 -26 2 -26 -3 0 -25 141 -241 345 -531 122 -173 197 -301 232 -395 17 -44 34 -89 38 -100 5 -11 7 -25 6 -31 0 -6 5 -29 12 -50 8 -21 12 -58 9 -80 -2 -23 1 -44 6 -48 5 -3 7 -26 5 -50 -3 -25 -2 -53 2 -63 4 -10 7 -39 6 -64 -2 -26 3 -50 9 -54 6 -4 8 -20 4 -40 -3 -18 -1 -35 4 -39 6 -3 8 -15 5 -26 -3 -11 0 -26 6 -33 6 -8 8 -17 4 -20 -3 -4 -1 -13 6 -20 6 -8 9 -21 5 -30 -3 -8 -1 -18 5 -21 6 -4 8 -13 5 -21 -3 -7 0 -24 7 -37 7 -13 12 -27 11 -32 -4 -14 29 -106 70 -194 60 -130 124 -218 241 -335 148 -147 262 -221 451 -297 87 -34 219 -69 262 -69 16 -1 47 -3 69 -6 73 -9 218 -14 229 -7 12 7 44 12 86 13 39 0 154 37 254 80 106 46 221 111 396 223 128 82 284 165 423 225 123 54 223 164 231 255 2 18 5 37 8 42 10 15 7 143 -3 149 -5 4 -7 16 -4 28 22 90 -198 607 -372 872 -101 154 -191 275 -209 282 -8 3 -14 10 -14 17 0 15 -157 196 -170 196 -6 0 -10 6 -10 13 0 13 -300 317 -314 317 -4 0 -39 34 -78 75 -38 41 -74 75 -79 75 -6 0 -47 39 -92 86 -45 47 -93 91 -107 97 -14 7 -29 22 -35 35 -5 12 -15 22 -22 22 -6 0 -28 20 -49 45 -20 25 -42 45 -49 45 -7 0 -20 -21 -29 -46z"/>
 <path d="M4403 6479 c-7 -7 -36 -10 -77 -7 -74 4 -79 -2 -51 -60 20 -39 42 -46 113 -37 91 11 105 19 97 58 -4 17 -12 38 -17 45 -13 15 -50 16 -65 1z"/>
 <path d="M4159 6414 c-22 -27 -80 -60 -139 -79 -30 -10 -60 -22 -66 -26 -6 -5 -19 -7 -28 -3 -27 10 -28 -18 -2 -81 28 -69 39 -73 123 -45 58 19 103 45 103 60 0 6 5 10 11 10 16 0 58 50 65 76 6 22 -30 104 -45 104 -5 0 -15 -7 -22 -16z"/>
 <path d="M4566 6421 c-17 -27 48 -102 73 -87 13 9 -6 55 -32 79 -22 19 -33 21 -41 8z"/>
 <path d="M5010 6338 c-19 -5 -42 -12 -50 -15 -19 -7 -160 -6 -168 1 -9 9 -50 7 -57 -3 -3 -5 2 -28 11 -50 16 -41 71 -78 99 -67 8 3 17 1 20 -4 8 -13 52 -13 60 0 4 6 21 8 40 4 19 -3 40 -2 47 2 7 5 21 8 32 9 25 0 41 27 31 51 -4 11 -8 29 -9 41 -2 33 -17 41 -56 31z"/>
 <path d="M3564 6269 c-9 -15 46 -111 61 -105 8 3 17 0 21 -5 3 -6 15 -9 25 -6 10 3 22 1 25 -5 4 -5 19 -7 35 -4 15 3 31 1 34 -4 8 -13 102 -13 110 -1 6 11 -32 118 -46 126 -5 4 -14 3 -20 -1 -13 -8 -107 -8 -129 -1 -29 10 -110 14 -116 6z"/>
 <path d="M5725 3190 c-4 -7 -35 -8 -84 -4 -54 5 -80 3 -85 -5 -4 -6 -18 -8 -30 -5 -25 6 -255 -32 -296 -49 -14 -6 -30 -9 -36 -8 -21 3 -221 -67 -298 -104 -41 -19 -108 -57 -148 -84 -75 -49 -208 -166 -208 -183 0 -5 -11 -19 -25 -31 -51 -45 -180 -311 -173 -356 1 -9 -2 -23 -7 -31 -11 -18 -15 -82 -14 -240 0 -69 0 -139 0 -157 -1 -18 4 -45 10 -60 6 -15 12 -44 14 -63 8 -77 90 -282 166 -416 58 -101 169 -255 205 -283 13 -10 24 -23 24 -27 1 -11 95 -104 105 -104 4 0 16 -11 27 -25 28 -35 148 -115 233 -154 75 -35 232 -89 274 -95 14 -2 34 -7 44 -11 10 -4 21 -5 24 -1 3 3 12 1 19 -5 8 -6 20 -9 29 -6 8 4 17 1 21 -4 3 -6 19 -9 34 -6 15 3 32 1 38 -5 16 -16 558 -16 574 0 6 6 23 8 38 5 15 -3 31 0 34 6 4 5 13 8 21 4 9 -3 21 0 29 6 7 6 20 9 29 5 8 -3 18 -1 21 4 3 6 15 8 25 5 10 -3 22 0 25 6 4 5 13 8 21 5 7 -3 24 0 37 7 13 7 27 12 31 11 13 -4 154 46 210 74 84 43 216 133 270 185 28 27 54 49 59 49 4 0 8 7 8 15 0 8 7 15 15 15 8 0 15 6 15 14 0 8 18 28 40 46 98 77 361 443 558 775 46 78 76 166 67 195 -3 10 -1 21 5 25 13 8 13 102 0 110 -6 3 -8 16 -5 28 15 62 -72 280 -155 387 -57 74 -132 150 -146 150 -7 0 -14 7 -18 15 -8 22 -175 128 -275 176 -90 43 -344 131 -370 128 -9 -1 -29 3 -45 10 -16 6 -48 13 -70 15 -23 2 -49 7 -58 11 -10 4 -24 5 -32 2 -7 -3 -18 -1 -23 4 -5 5 -41 11 -80 13 -39 2 -76 7 -82 11 -7 3 -49 4 -95 0 -57 -5 -86 -4 -90 4 -9 15 -442 15 -451 1z m369 -262 c11 -2 35 -17 55 -35 30 -27 33 -34 22 -47 -18 -21 -43 -20 -84 4 -49 29 -111 21 -205 -26 l-77 -38 0 -127 0 -128 28 -5 c15 -3 52 -17 81 -31 41 -19 59 -35 75 -66 40 -76 21 -93 -65 -58 -31 12 -70 23 -88 24 -17 1 -39 5 -48 10 -10 4 -26 4 -35 0 -10 -4 -35 -9 -57 -10 -21 -2 -59 -14 -85 -27 -74 -36 -103 -20 -73 42 16 34 91 88 152 110 l35 12 0 122 0 121 -70 33 c-38 19 -79 35 -90 37 -11 1 -28 6 -37 10 -10 4 -26 4 -35 -1 -10 -4 -22 -6 -26 -5 -5 1 -23 -8 -42 -19 -38 -23 -68 -26 -84 -7 -13 16 9 39 74 79 57 35 129 32 219 -10 104 -49 135 -49 220 -5 103 53 122 56 240 41z m341 -640 c30 -36 81 -143 76 -162 -1 -5 1 -16 5 -25 23 -54 22 -207 -1 -264 -4 -10 -5 -21 -1 -24 3 -3 2 -11 -2 -17 -5 -6 -17 -33 -27 -61 -10 -27 -31 -69 -46 -93 -16 -24 -29 -46 -29 -50 0 -17 -148 -102 -177 -102 -13 0 -72 36 -103 62 -38 33 -70 132 -71 218 -1 91 28 160 97 240 65 74 97 138 88 174 -3 13 -1 27 5 30 6 4 11 26 11 50 0 94 104 108 175 24z m-1178 10 c23 -18 43 -70 37 -94 -12 -49 51 -185 93 -201 45 -18 107 -123 119 -203 4 -25 11 -51 17 -57 6 -9 6 -17 0 -25 -6 -7 -13 -29 -16 -49 -9 -59 -44 -125 -84 -158 -30 -25 -47 -31 -83 -31 -116 1 -219 105 -275 280 -10 30 -21 60 -26 66 -5 5 -6 26 -3 46 4 21 2 38 -5 42 -6 4 -11 27 -11 51 0 24 5 47 11 51 6 4 9 20 6 39 -3 18 -2 37 2 41 4 5 15 36 25 69 14 46 29 71 65 106 42 40 52 45 82 41 19 -2 40 -9 46 -14z"/>
 <path d="M6201 1984 c-99 -42 -121 -186 -42 -274 34 -38 44 -44 82 -45 45 -1 99 18 99 35 0 6 7 10 15 10 18 0 81 82 95 125 15 44 -6 93 -54 130 -31 23 -47 28 -102 29 -36 1 -78 -4 -93 -10z m114 -134 c18 -20 18 -21 -8 -47 -26 -26 -27 -26 -47 -8 -23 20 -26 45 -8 63 18 18 43 15 63 -8z"/>
 <path d="M5265 1970 c-3 -5 -12 -7 -19 -4 -36 14 -119 -60 -131 -115 -7 -35 25 -118 49 -127 9 -3 16 -11 16 -18 0 -12 48 -47 92 -67 76 -34 173 44 184 149 4 37 0 57 -18 92 -25 49 -82 94 -110 87 -10 -3 -21 -1 -24 4 -7 12 -31 12 -39 -1z m54 -141 c16 -18 18 -25 8 -41 -18 -29 -71 -21 -75 11 -3 15 3 30 14 38 24 17 30 17 53 -8z"/>
 </g>
<g id="layer103" fill="#1c6273" stroke="none">
 <path d="M0 4995 l0 -4995 6000 0 6000 0 0 4995 0 4995 -6000 0 -6000 0 0 -4995z m6960 4621 c47 -4 112 -9 145 -11 33 -2 84 -4 113 -4 29 0 58 -4 65 -8 6 -4 32 -9 57 -10 25 -1 65 -5 90 -8 25 -3 63 -7 85 -10 22 -2 60 -7 85 -9 25 -3 63 -8 85 -11 22 -3 54 -8 70 -10 17 -2 46 -7 65 -10 19 -3 46 -6 60 -6 14 -1 30 -5 37 -11 7 -5 17 -7 23 -3 5 3 16 3 23 -2 6 -4 23 -9 37 -10 41 -3 65 -8 78 -17 7 -4 20 -5 28 -2 9 3 21 3 27 -1 7 -5 21 -8 32 -9 38 -2 150 -27 162 -36 7 -5 17 -7 22 -4 5 4 13 1 16 -5 4 -5 13 -8 21 -5 7 3 16 1 20 -5 3 -6 13 -8 21 -5 9 4 22 1 29 -5 7 -6 18 -8 23 -5 5 4 13 1 16 -5 4 -5 13 -8 21 -5 7 3 16 1 20 -5 3 -6 12 -8 19 -5 7 2 25 -2 40 -10 15 -8 30 -12 32 -10 6 6 94 -24 111 -37 7 -5 15 -7 19 -3 3 3 16 0 27 -7 12 -8 39 -19 61 -26 44 -14 54 -18 137 -55 31 -14 62 -26 68 -26 9 0 60 -26 138 -70 15 -8 48 -30 74 -48 26 -17 51 -32 56 -32 6 0 12 -7 16 -15 3 -8 12 -15 20 -15 7 0 16 -7 20 -15 3 -8 12 -15 20 -15 16 0 236 -213 236 -229 0 -6 9 -15 20 -21 11 -6 20 -17 20 -26 0 -8 6 -17 14 -20 7 -3 22 -22 32 -42 11 -20 34 -59 51 -85 18 -27 38 -68 44 -90 6 -23 15 -47 20 -53 14 -17 48 -122 42 -128 -3 -3 -1 -12 5 -19 7 -8 9 -17 5 -20 -3 -4 0 -13 6 -21 7 -8 12 -33 13 -55 0 -23 5 -44 10 -47 5 -3 6 -14 3 -25 -4 -10 -3 -24 2 -31 4 -7 9 -24 11 -38 1 -14 5 -47 8 -75 21 -190 23 -508 3 -521 -6 -3 -7 -19 -4 -35 4 -18 2 -36 -5 -44 -6 -8 -9 -19 -5 -25 4 -6 1 -17 -5 -25 -6 -8 -9 -19 -6 -24 4 -5 1 -13 -5 -16 -5 -4 -8 -14 -5 -22 4 -9 2 -21 -4 -28 -6 -7 -13 -28 -15 -45 -2 -18 -9 -38 -14 -43 -6 -6 -11 -20 -11 -30 0 -11 -10 -35 -21 -54 -12 -19 -19 -37 -15 -40 3 -3 -4 -17 -14 -31 -11 -13 -20 -33 -20 -42 0 -10 -6 -23 -14 -29 -7 -6 -28 -42 -45 -81 -18 -38 -37 -72 -42 -75 -5 -4 -9 -14 -9 -24 0 -10 -9 -26 -19 -35 -10 -9 -33 -47 -51 -83 -18 -36 -41 -74 -51 -84 -11 -11 -19 -25 -19 -33 0 -7 -9 -25 -20 -39 -11 -14 -20 -32 -20 -40 0 -8 -6 -20 -14 -27 -21 -16 -86 -145 -86 -168 0 -11 -6 -25 -14 -31 -7 -6 -16 -26 -20 -43 -3 -17 -18 -56 -32 -85 -13 -29 -22 -58 -19 -63 3 -5 1 -11 -3 -14 -5 -3 -9 -19 -10 -36 0 -17 -5 -37 -10 -43 -5 -7 -10 -32 -11 -56 -1 -25 -5 -49 -8 -54 -13 -21 -20 -332 -8 -402 3 -22 8 -56 11 -75 6 -54 6 -479 -1 -535 -11 -85 -14 -109 -20 -145 -3 -19 -7 -44 -8 -55 -1 -11 -6 -26 -10 -32 -5 -7 -6 -17 -2 -22 3 -5 1 -13 -5 -16 -6 -4 -8 -15 -5 -25 3 -10 1 -21 -5 -25 -6 -4 -9 -13 -6 -21 3 -7 1 -16 -5 -20 -6 -3 -8 -12 -5 -20 3 -7 1 -16 -5 -20 -6 -3 -8 -12 -5 -19 2 -7 0 -17 -5 -22 -5 -5 -11 -23 -13 -39 -6 -45 -36 -143 -47 -149 -5 -4 -9 -15 -9 -27 0 -11 -6 -32 -14 -46 -7 -15 -19 -40 -26 -57 -6 -16 -18 -43 -26 -58 -8 -16 -14 -34 -14 -42 0 -20 -109 -247 -136 -282 -13 -17 -24 -39 -24 -47 0 -9 -9 -24 -20 -33 -11 -10 -20 -24 -20 -31 0 -8 -10 -28 -22 -45 -28 -39 -44 -65 -58 -96 -6 -13 -24 -39 -40 -59 -17 -20 -30 -42 -30 -48 0 -6 -16 -31 -35 -55 -19 -24 -35 -49 -35 -55 0 -6 -14 -26 -30 -44 -16 -18 -30 -40 -30 -47 0 -7 -4 -13 -10 -13 -5 0 -16 -15 -24 -33 -8 -17 -30 -50 -50 -71 -20 -22 -36 -45 -36 -52 0 -6 -7 -14 -15 -18 -8 -3 -15 -12 -15 -21 0 -8 -4 -15 -10 -15 -5 0 -17 -16 -26 -35 -9 -19 -20 -35 -25 -35 -5 0 -12 -8 -16 -18 -8 -23 -83 -125 -100 -135 -7 -4 -13 -15 -13 -22 0 -8 -4 -15 -10 -15 -5 0 -16 -15 -25 -34 -9 -19 -23 -37 -31 -40 -8 -3 -14 -12 -14 -21 0 -8 -4 -15 -10 -15 -5 0 -17 -16 -26 -35 -9 -19 -20 -35 -25 -35 -4 0 -16 -16 -25 -35 -9 -19 -20 -35 -25 -35 -4 0 -16 -16 -25 -35 -9 -19 -21 -35 -26 -35 -5 0 -14 -13 -19 -30 -6 -16 -14 -30 -19 -30 -10 0 -93 -127 -109 -167 -7 -17 -19 -34 -27 -37 -8 -3 -14 -10 -14 -16 0 -6 -11 -26 -25 -44 -14 -18 -25 -36 -25 -40 0 -4 -10 -22 -23 -39 -34 -49 -45 -69 -63 -110 -9 -20 -20 -37 -25 -37 -5 0 -15 -15 -23 -34 -8 -19 -24 -44 -35 -55 -11 -11 -27 -35 -35 -53 -7 -18 -27 -48 -43 -66 -17 -18 -41 -53 -54 -78 -12 -25 -33 -56 -46 -67 -12 -12 -23 -28 -23 -34 0 -7 -4 -13 -10 -13 -5 0 -17 -16 -26 -36 -9 -19 -28 -42 -40 -51 -13 -8 -24 -21 -24 -28 0 -8 -11 -22 -25 -33 -14 -11 -25 -23 -25 -27 0 -4 -16 -25 -36 -47 -42 -46 -38 -55 36 -87 28 -12 50 -26 50 -31 0 -6 7 -10 15 -10 8 0 15 -7 15 -15 0 -9 7 -18 15 -21 8 -4 15 -13 15 -21 0 -8 7 -30 16 -49 15 -31 15 -61 0 -124 -4 -20 -24 -68 -42 -104 -8 -16 -14 -34 -14 -40 0 -6 -9 -17 -20 -24 -11 -7 -20 -18 -20 -25 0 -34 -169 -148 -207 -139 -6 1 -14 -2 -18 -8 -8 -13 -62 -13 -70 1 -4 5 -12 8 -18 6 -32 -10 -125 138 -132 211 -2 22 -8 48 -13 58 -5 11 -15 31 -21 46 l-10 27 -43 -24 c-23 -13 -45 -22 -49 -19 -5 2 -37 -9 -73 -26 -36 -17 -76 -32 -88 -34 -13 -1 -36 -8 -53 -15 -16 -7 -46 -14 -65 -16 -19 -1 -35 -4 -35 -5 0 -2 -40 -9 -75 -14 -14 -1 -29 -4 -35 -6 -61 -19 -449 -29 -600 -15 -27 3 -63 5 -79 5 -16 0 -34 4 -40 9 -6 4 -31 8 -54 9 -24 0 -50 6 -57 12 -8 7 -19 9 -24 6 -5 -4 -13 -1 -16 5 -4 5 -13 8 -21 5 -7 -3 -16 -1 -20 5 -3 6 -11 8 -18 6 -7 -3 -30 3 -52 14 -21 10 -48 18 -59 19 -11 0 -31 7 -43 16 -12 8 -26 13 -31 9 -5 -3 -12 -1 -16 5 -3 5 -32 22 -63 36 -88 40 -116 56 -130 73 -11 14 -13 14 -24 -4 -7 -11 -14 -31 -15 -44 -1 -13 -7 -29 -13 -35 -5 -5 -10 -20 -10 -32 0 -11 -11 -38 -25 -58 -14 -20 -25 -40 -25 -45 0 -18 -48 -51 -91 -62 -54 -15 -126 1 -155 32 -9 11 -22 19 -28 19 -13 0 -76 61 -76 74 0 6 -12 22 -25 35 -14 12 -23 27 -20 31 3 5 -6 29 -19 53 -14 24 -23 47 -20 50 3 3 -2 22 -10 42 -17 41 -22 140 -7 150 5 3 12 18 16 34 12 57 105 132 152 123 22 -5 25 20 4 39 -12 11 -21 26 -21 35 0 8 -7 17 -15 20 -8 4 -15 15 -15 25 0 11 -7 22 -15 25 -8 4 -15 14 -15 24 0 9 -13 34 -29 54 -17 21 -37 58 -46 84 -9 26 -21 55 -26 64 -5 10 -9 23 -9 28 0 6 -12 36 -26 67 -15 30 -26 66 -26 79 0 14 -5 27 -9 30 -5 3 -7 10 -3 15 3 5 0 16 -6 24 -6 8 -9 19 -5 25 4 6 1 17 -5 25 -6 8 -9 19 -5 25 4 6 2 17 -5 24 -6 8 -8 25 -5 39 4 14 2 28 -4 31 -13 8 -13 263 0 272 5 3 7 15 4 25 -4 11 -1 26 5 34 6 8 9 19 5 25 -4 6 -1 17 5 25 6 8 9 18 6 23 -6 10 23 102 42 138 6 10 24 47 40 81 17 34 39 75 50 90 10 15 22 38 26 50 4 12 25 36 47 53 21 18 39 37 39 43 0 15 41 57 56 57 6 0 19 11 28 25 9 14 22 25 29 25 24 0 90 67 84 84 -4 9 -11 16 -17 16 -5 0 -10 7 -10 15 0 9 -7 18 -15 21 -8 4 -15 12 -15 20 0 7 -9 18 -19 23 -10 6 -24 24 -29 41 -6 16 -16 30 -21 30 -6 0 -11 7 -11 15 0 7 -6 18 -14 22 -16 10 -86 107 -86 120 0 5 -16 27 -36 49 -20 21 -42 54 -50 72 -8 17 -18 32 -22 32 -5 0 -16 17 -25 38 -9 21 -31 54 -48 73 -17 18 -38 49 -45 66 -8 18 -18 33 -23 33 -4 0 -16 17 -27 38 -27 52 -74 124 -96 145 -10 10 -18 24 -18 31 0 7 -10 24 -22 38 -31 33 -73 96 -93 140 -9 20 -28 49 -42 64 -14 16 -32 43 -39 61 -8 18 -19 33 -24 33 -6 0 -10 7 -10 15 0 18 -99 175 -111 175 -5 0 -9 7 -9 16 0 17 -71 127 -105 161 -12 12 -32 43 -45 68 -13 25 -40 64 -61 88 -21 23 -46 58 -56 77 -26 50 -153 243 -169 256 -8 6 -21 27 -29 48 -8 20 -20 36 -25 36 -6 0 -10 9 -10 20 0 11 -7 23 -15 26 -8 4 -15 15 -15 25 0 11 -7 22 -15 25 -8 4 -15 14 -15 24 0 9 -9 25 -20 35 -11 10 -20 25 -20 33 0 16 -35 84 -62 121 -10 13 -18 31 -18 41 0 10 -9 29 -20 43 -11 14 -20 34 -20 45 0 11 -7 25 -15 32 -8 7 -13 16 -10 20 5 8 -26 105 -51 158 -9 18 -13 40 -10 49 3 8 3 20 -1 26 -9 13 -10 23 -20 112 -8 73 -8 209 0 290 3 33 8 84 10 113 3 29 10 59 17 67 6 8 9 19 5 25 -4 6 1 27 10 46 9 20 14 38 11 41 -3 4 -1 12 4 19 6 6 10 16 9 20 -1 5 3 23 10 39 7 17 14 40 15 52 1 12 8 29 16 38 7 8 10 18 7 21 -3 3 6 22 20 42 13 20 27 49 30 65 3 15 10 27 14 27 5 0 14 12 20 26 7 21 6 31 -6 44 -8 9 -15 20 -15 24 0 5 -11 21 -25 38 -14 16 -25 36 -25 45 0 8 -20 45 -45 82 -25 37 -45 73 -45 80 0 7 -11 27 -25 45 -14 18 -25 40 -25 49 0 8 -11 28 -24 44 -13 15 -33 49 -45 74 -12 26 -44 71 -72 100 -27 30 -49 58 -49 62 0 4 -29 37 -64 72 -64 64 -74 88 -52 124 4 7 5 15 2 18 -3 4 1 17 10 31 8 13 13 26 10 29 -3 3 1 18 8 32 53 104 67 134 62 139 -10 9 -56 -17 -63 -35 -7 -19 -73 -115 -84 -123 -12 -8 -129 -190 -129 -199 0 -5 -7 -11 -15 -15 -8 -3 -15 -12 -15 -20 0 -7 -7 -16 -15 -20 -8 -3 -15 -11 -15 -18 0 -7 -9 -19 -20 -26 -11 -7 -20 -19 -20 -27 0 -8 -7 -15 -15 -15 -8 0 -20 -9 -27 -20 -7 -11 -19 -20 -26 -20 -7 0 -15 -7 -18 -15 -3 -8 -31 -21 -62 -30 -32 -10 -62 -21 -68 -26 -6 -5 -18 -7 -27 -3 -8 3 -18 1 -22 -5 -3 -6 -38 -11 -80 -11 -42 0 -77 5 -80 11 -4 6 -13 8 -21 5 -7 -3 -16 -1 -19 4 -4 6 -15 10 -25 10 -10 0 -39 14 -63 30 -25 17 -49 30 -54 30 -15 0 -68 62 -89 104 -10 21 -25 40 -31 43 -7 3 -11 8 -8 13 2 4 -4 24 -15 44 -10 21 -16 44 -14 51 3 7 0 16 -5 20 -6 3 -9 11 -5 16 3 5 0 16 -6 24 -8 10 -10 30 -6 54 3 23 2 42 -4 46 -13 8 -13 72 0 80 5 3 7 25 3 50 -4 29 -1 50 7 59 6 9 9 20 5 26 -4 6 -1 17 5 25 6 8 9 19 5 25 -4 6 -1 17 5 25 6 8 9 19 5 24 -3 6 3 30 13 53 23 50 34 85 37 113 3 25 27 76 60 130 14 22 25 47 25 56 0 9 7 22 16 29 8 8 21 27 28 44 8 17 30 49 50 71 20 22 36 44 36 48 0 12 127 137 139 137 5 0 14 6 18 14 12 20 84 62 120 69 18 4 53 16 78 27 25 11 50 18 56 15 5 -4 15 -2 22 3 29 24 337 35 552 19 61 -4 139 -10 175 -12 36 -2 106 -6 155 -9 146 -10 466 -8 478 2 17 14 104 52 117 52 7 0 24 6 38 14 15 7 38 18 52 24 14 5 42 18 64 27 21 9 49 18 61 20 13 1 40 10 60 19 20 10 49 18 66 18 16 1 32 5 35 10 3 4 18 8 34 8 16 0 32 5 35 10 4 6 15 8 25 5 10 -3 21 -1 25 5 3 6 11 8 16 4 5 -3 16 0 24 6 8 7 22 9 31 6 9 -4 23 -1 30 5 8 6 21 8 30 5 9 -4 23 -1 30 5 8 6 21 8 30 5 9 -4 23 -1 30 5 8 6 21 8 30 5 9 -4 23 -1 30 5 8 6 21 9 30 5 8 -3 23 -2 33 3 15 9 92 19 186 26 22 1 45 4 50 5 14 4 60 9 125 12 30 2 60 7 67 11 7 4 34 7 60 7 26 0 80 2 118 5 183 14 256 17 620 19 387 3 390 3 401 24 15 30 45 62 58 62 6 0 29 16 50 35 22 19 50 35 62 35 13 0 25 4 29 10 3 5 12 7 19 4 8 -3 17 -1 20 5 7 11 375 9 536 -3z"/>
 <path d="M5487 9357 c-12 -5 -69 -8 -127 -8 -101 0 -130 -2 -285 -14 -38 -4 -90 -7 -115 -8 -25 -1 -51 -6 -58 -10 -7 -5 -29 -6 -48 -2 -22 4 -41 2 -50 -6 -7 -6 -25 -8 -38 -5 -14 3 -28 1 -32 -5 -4 -7 -21 -9 -42 -5 -20 3 -41 1 -47 -4 -6 -5 -38 -12 -71 -14 -32 -2 -61 -5 -64 -7 -3 -1 -16 -4 -30 -5 -14 -2 -41 -6 -60 -9 -19 -3 -46 -6 -60 -6 -14 -1 -30 -5 -37 -11 -7 -5 -17 -7 -23 -3 -6 4 -17 2 -24 -4 -7 -6 -20 -9 -29 -5 -8 3 -18 0 -22 -5 -3 -6 -11 -9 -16 -6 -5 4 -15 3 -21 -2 -7 -4 -17 -8 -23 -8 -5 -1 -23 -7 -39 -13 -15 -7 -40 -13 -55 -14 -14 -1 -31 -5 -37 -10 -6 -4 -28 -10 -48 -13 -21 -2 -43 -9 -50 -14 -16 -13 -117 -53 -144 -56 -12 -1 -30 -9 -40 -18 -24 -21 -138 -77 -157 -77 -9 0 -18 -7 -21 -15 -4 -8 -13 -15 -20 -15 -18 0 -94 -50 -94 -61 0 -5 -7 -9 -15 -9 -8 0 -19 -9 -25 -20 -6 -11 -15 -20 -20 -20 -10 0 -160 -149 -160 -159 0 -3 -16 -23 -35 -44 -20 -21 -42 -53 -50 -70 -8 -18 -31 -61 -50 -97 -19 -36 -42 -94 -50 -129 -9 -35 -19 -68 -23 -75 -4 -6 -8 -20 -9 -31 -1 -11 -5 -33 -8 -50 -24 -132 -23 -334 4 -470 5 -27 7 -53 5 -57 -3 -5 -2 -14 2 -20 8 -12 10 -23 18 -73 1 -11 8 -33 15 -50 7 -16 13 -43 13 -58 1 -15 5 -30 10 -33 4 -3 8 -13 8 -23 0 -10 7 -32 15 -47 8 -16 15 -39 15 -51 0 -12 5 -25 10 -28 6 -3 10 -13 10 -22 0 -19 61 -153 70 -153 4 0 15 9 25 20 10 11 23 20 29 20 6 0 22 12 35 25 13 14 31 25 40 25 10 0 21 3 25 8 4 4 24 12 44 17 36 10 37 12 34 52 -2 23 2 44 8 48 6 4 8 20 4 40 -3 20 -1 35 6 40 6 4 8 16 5 26 -4 11 -2 26 5 33 6 8 10 18 8 22 -5 20 14 73 33 90 10 9 19 23 19 30 0 14 34 37 60 40 8 0 20 3 25 5 16 6 139 -34 148 -48 4 -7 14 -13 22 -13 20 0 141 -135 165 -185 11 -24 28 -49 36 -55 7 -7 14 -20 14 -30 0 -9 8 -28 18 -41 21 -28 64 -130 67 -162 1 -12 3 -24 4 -27 1 -7 166 -5 334 5 101 5 137 10 137 20 0 7 7 15 15 19 8 3 15 12 15 20 0 7 7 16 15 20 8 3 15 12 15 20 0 7 7 16 15 20 8 3 15 12 15 20 0 7 7 16 15 20 8 3 15 12 15 20 0 7 7 16 15 20 8 3 15 12 15 20 0 7 7 16 15 20 8 3 15 12 15 21 0 8 4 15 10 15 5 0 17 16 26 35 9 19 20 35 25 35 4 0 17 19 28 43 11 23 50 82 86 130 36 48 65 91 65 95 0 11 83 92 95 92 6 0 18 9 28 20 9 11 25 20 34 20 10 0 29 6 43 13 14 7 52 14 85 15 50 3 64 0 78 -16 25 -28 76 -133 71 -147 -7 -17 32 -49 48 -39 7 5 22 10 33 11 11 2 36 5 55 8 191 24 543 25 715 0 17 -2 63 -6 104 -10 40 -3 79 -9 85 -13 6 -4 20 -8 31 -9 31 -4 70 -11 70 -13 0 -2 11 -4 25 -6 14 -2 39 -6 55 -9 17 -4 37 -7 45 -9 9 -1 20 -4 25 -7 6 -3 23 -6 39 -7 16 -1 35 -7 41 -12 7 -6 17 -10 21 -8 15 4 88 -13 100 -23 7 -5 29 -12 50 -14 20 -3 43 -10 51 -17 7 -6 16 -8 19 -5 6 6 93 -21 110 -35 7 -5 26 -10 44 -13 17 -2 38 -9 46 -16 8 -6 17 -9 21 -5 3 3 17 -1 31 -10 13 -8 27 -12 30 -8 4 4 1 9 -6 11 -6 3 -10 8 -7 13 3 5 -24 35 -60 67 -36 32 -65 63 -65 70 0 6 -11 20 -25 31 -14 11 -25 25 -25 31 0 5 -9 15 -20 21 -11 6 -20 17 -20 25 0 8 -9 19 -20 25 -11 6 -20 17 -20 25 0 8 -9 19 -20 25 -11 6 -20 17 -20 25 0 8 -9 19 -20 25 -11 6 -20 17 -20 24 0 8 -11 21 -25 30 -14 9 -25 23 -25 30 0 8 -11 21 -25 30 -14 9 -25 22 -25 29 0 6 -23 31 -50 55 -28 24 -50 49 -50 55 0 16 -82 97 -97 97 -7 0 -27 18 -44 40 -18 22 -38 40 -44 40 -7 0 -18 7 -25 15 -10 12 -10 15 4 15 8 0 23 11 32 25 9 14 23 25 30 25 8 0 14 6 14 13 0 6 25 38 55 70 30 32 55 63 55 69 0 5 9 21 20 35 22 28 27 63 9 63 -7 0 -41 -29 -76 -65 -35 -36 -69 -65 -76 -65 -7 0 -20 -9 -30 -20 -9 -11 -23 -20 -30 -20 -7 0 -20 -9 -29 -20 -10 -11 -30 -22 -45 -26 -29 -6 -45 -12 -102 -37 -19 -8 -40 -13 -47 -10 -6 2 -15 -1 -19 -6 -3 -6 -11 -9 -16 -5 -5 3 -16 0 -24 -6 -23 -19 -214 -29 -325 -17 -120 14 -143 19 -178 37 -20 11 -46 20 -58 20 -11 0 -36 14 -54 30 -18 17 -39 30 -46 30 -16 0 -64 62 -64 83 0 9 -4 18 -8 21 -10 6 -8 88 2 104 4 8 5 16 2 19 -3 3 4 17 14 31 11 13 20 31 20 38 0 8 11 24 25 36 14 12 25 27 25 33 0 14 52 65 68 65 6 0 15 6 19 14 4 8 43 51 86 95 42 44 77 85 77 90 0 6 5 11 10 11 6 0 15 12 20 26 12 32 70 116 88 127 6 4 12 14 12 22 0 8 8 22 18 32 22 22 60 75 64 91 4 14 -569 22 -605 9z"/>
 <path d="M2025 8740 c-3 -5 -12 -7 -19 -4 -29 11 -135 -103 -141 -151 -1 -5 -5 -20 -9 -33 -10 -29 15 -84 46 -104 13 -7 48 -24 78 -38 30 -13 62 -30 71 -38 9 -7 30 -15 45 -17 16 -2 31 -5 34 -6 3 -1 12 -3 20 -4 8 0 27 -5 42 -9 35 -10 118 22 118 45 0 9 6 21 13 27 18 15 13 147 -8 200 -10 23 -26 47 -36 53 -11 5 -19 16 -19 23 0 24 -50 47 -108 52 -32 3 -72 7 -89 9 -18 2 -35 0 -38 -5z"/>
 <path d="M2675 8120 c-3 -5 1 -10 9 -10 8 0 18 5 21 10 3 6 -1 10 -9 10 -8 0 -18 -4 -21 -10z"/>
 <path d="M1642 8092 c-7 -2 -18 -16 -24 -31 -14 -33 -14 -146 0 -175 6 -11 13 -29 16 -38 6 -21 16 -22 40 -5 21 15 26 43 28 137 2 85 -20 126 -60 112z"/>
 <path d="M1885 8034 c-14 -15 -25 -34 -25 -43 0 -9 -7 -29 -15 -45 -8 -15 -13 -32 -10 -36 3 -5 0 -20 -6 -34 -10 -20 -8 -32 5 -60 14 -29 22 -36 46 -36 19 0 30 5 30 14 0 7 10 26 22 41 12 16 21 41 20 59 0 17 4 41 10 53 8 17 6 32 -11 67 -11 25 -26 46 -32 46 -5 0 -21 -12 -34 -26z"/>
 <path d="M2141 7934 c-11 -8 -21 -19 -21 -25 0 -5 -9 -18 -20 -29 -11 -11 -20 -29 -20 -39 0 -11 -4 -22 -9 -25 -5 -3 -8 -25 -7 -48 1 -43 1 -43 36 -40 19 2 41 11 47 20 7 9 21 26 31 37 56 62 62 158 10 162 -14 1 -35 -5 -47 -13z"/>
 <path d="M9870 7900 c0 -5 5 -10 10 -10 6 0 10 5 10 10 0 6 -4 10 -10 10 -5 0 -10 -4 -10 -10z"/>
 <path d="M9865 7835 c-3 -8 -8 -23 -12 -32 -4 -10 -7 -23 -8 -29 0 -6 -5 -22 -11 -35 -48 -101 -63 -130 -91 -170 -18 -26 -33 -50 -33 -55 0 -5 -9 -15 -20 -22 -11 -7 -20 -18 -20 -24 0 -16 -81 -98 -96 -98 -6 0 -18 -10 -27 -23 -8 -12 -36 -33 -61 -47 -26 -13 -58 -34 -72 -47 -14 -13 -29 -23 -35 -23 -16 0 -84 -37 -98 -54 -7 -9 -17 -13 -22 -10 -9 5 -18 1 -99 -40 -46 -24 -137 -56 -143 -50 -2 3 -17 -1 -33 -7 -16 -7 -34 -11 -41 -10 -6 1 -14 -3 -18 -8 -3 -6 -12 -8 -19 -5 -8 3 -17 0 -21 -5 -3 -6 -11 -9 -16 -5 -5 3 -16 0 -24 -6 -8 -6 -19 -9 -25 -5 -6 4 -17 1 -25 -5 -8 -7 -22 -9 -31 -6 -9 4 -23 1 -30 -5 -8 -6 -21 -8 -30 -5 -9 4 -23 1 -30 -5 -8 -6 -27 -9 -44 -6 -16 4 -32 2 -35 -3 -8 -13 -322 -13 -330 0 -7 11 -40 8 -52 -3 -4 -4 3 -10 15 -14 12 -3 22 -9 22 -14 0 -5 10 -13 23 -18 31 -13 126 -86 144 -111 8 -11 20 -20 27 -20 8 0 21 -11 30 -25 9 -14 21 -25 27 -25 14 0 249 -235 249 -249 0 -6 11 -18 25 -27 14 -9 25 -20 25 -25 0 -6 15 -24 33 -42 17 -18 39 -46 47 -63 21 -42 71 -117 86 -129 7 -6 29 -45 49 -85 20 -41 42 -86 49 -100 60 -116 76 -151 76 -165 0 -24 40 -76 52 -69 5 3 7 17 3 31 -3 14 -1 31 5 39 7 7 9 18 5 24 -4 6 -1 17 5 25 6 8 9 19 6 24 -4 5 -1 13 5 16 5 4 8 13 5 20 -2 7 2 25 11 41 8 16 16 41 18 56 2 14 11 38 20 52 9 14 14 29 11 34 -3 6 1 15 9 22 8 7 15 23 15 35 0 12 8 33 18 46 25 32 62 106 62 123 0 7 14 31 31 52 17 21 33 51 36 66 3 16 9 28 14 28 9 0 25 28 59 102 12 26 30 54 41 64 10 9 19 23 19 31 0 7 9 22 20 33 11 11 20 28 20 39 0 10 12 34 28 53 23 30 66 114 92 183 5 11 12 29 16 40 4 11 8 25 9 31 0 6 5 18 11 25 6 8 11 23 11 34 1 11 7 34 14 50 7 17 13 35 14 40 0 6 4 16 8 23 5 6 5 17 2 22 -3 6 -3 16 2 23 4 6 9 21 10 32 1 11 5 38 8 60 3 22 5 57 5 77 0 20 4 39 10 43 5 3 7 17 4 31 -3 13 -3 32 1 41 10 25 12 233 2 233 -4 0 -10 -7 -12 -15z"/>
 <path d="M5269 7785 c-3 -2 -23 -5 -44 -6 -22 -1 -47 -6 -56 -10 -18 -9 -149 -137 -149 -146 0 -2 -21 -31 -47 -64 -45 -58 -51 -85 -13 -61 11 7 26 12 33 12 8 0 31 11 51 25 20 14 43 25 52 25 8 0 22 4 32 9 9 5 35 17 57 29 22 11 65 25 95 32 67 15 72 18 63 33 -4 7 -8 17 -8 22 0 6 -8 27 -18 49 -9 21 -17 42 -17 47 0 9 -23 12 -31 4z"/>
 <path d="M3593 7552 c-25 -19 -54 -137 -56 -232 l-1 -55 74 -8 c41 -4 83 -12 93 -17 10 -6 22 -8 27 -5 5 3 30 -3 54 -15 25 -11 49 -20 54 -20 5 0 22 -6 38 -14 117 -56 124 -57 100 -10 -8 16 -18 41 -21 56 -3 14 -16 40 -30 56 -14 17 -25 35 -25 41 0 17 -50 89 -66 95 -8 3 -14 10 -14 16 0 16 -61 80 -77 80 -7 0 -13 4 -13 10 0 13 -29 26 -75 33 -29 5 -46 2 -62 -11z"/>
 <path d="M4425 7010 c-11 -5 -83 -9 -160 -8 -80 1 -138 -3 -136 -8 17 -42 20 -58 15 -82 -3 -16 2 -51 11 -78 9 -27 18 -71 20 -99 2 -27 4 -50 5 -50 3 0 8 -36 13 -80 1 -13 7 -28 12 -34 11 -10 80 -16 166 -13 52 2 57 4 63 28 4 15 2 32 -3 37 -14 14 -14 84 0 92 6 4 7 19 4 36 -4 18 -2 36 5 44 6 8 9 19 5 25 -4 6 -1 17 5 25 6 8 9 19 6 24 -4 5 -1 13 5 16 5 4 8 13 5 20 -2 7 4 31 15 52 11 21 17 43 14 50 -5 15 -40 16 -70 3z"/>
 <path d="M4549 6918 c-5 -51 -9 -71 -18 -82 -6 -6 -10 -21 -10 -31 -1 -11 -3 -61 -5 -111 -5 -113 8 -158 49 -178 34 -16 65 -29 80 -32 6 -1 12 -3 15 -4 15 -7 68 -11 175 -11 136 0 175 3 193 14 6 5 16 6 21 2 17 -10 111 32 144 65 18 18 42 39 55 47 12 9 22 20 22 26 0 6 6 18 14 26 18 20 25 55 11 56 -5 0 -15 4 -22 8 -6 4 -18 5 -26 2 -7 -3 -33 1 -57 9 -23 8 -48 12 -55 10 -7 -3 -16 0 -20 6 -4 6 -20 8 -40 4 -19 -3 -35 -1 -39 5 -4 6 -20 8 -36 4 -17 -3 -36 0 -44 6 -8 7 -25 9 -40 5 -15 -4 -32 -1 -41 6 -8 7 -22 9 -31 6 -9 -4 -23 -1 -31 5 -7 7 -16 9 -20 6 -3 -4 -12 -2 -20 5 -7 6 -16 8 -20 5 -3 -4 -12 -2 -20 5 -7 6 -16 8 -19 5 -11 -11 -144 91 -144 111 0 6 -4 12 -10 12 -5 0 -11 -6 -11 -12z"/>
 <path d="M4064 6705 c-4 -8 -12 -15 -19 -15 -7 0 -23 -9 -37 -19 -13 -11 -38 -23 -54 -27 -16 -4 -42 -15 -59 -25 -63 -38 -185 -99 -199 -99 -8 0 -28 -11 -44 -25 -17 -14 -36 -25 -43 -25 -17 0 -59 -43 -59 -59 0 -6 6 -12 13 -12 6 -1 23 -3 37 -5 132 -17 211 -20 285 -11 95 11 118 16 135 32 9 8 24 15 33 15 9 0 20 6 24 13 4 6 17 17 28 23 21 12 32 63 19 92 -4 10 -6 22 -5 29 1 6 -3 14 -9 18 -5 3 -7 17 -4 30 3 12 1 26 -5 29 -6 4 -11 18 -11 32 0 26 -17 33 -26 9z"/>
 <path d="M5356 6619 c-40 -84 -74 -120 -151 -158 -68 -34 -94 -63 -76 -85 6 -7 11 -28 12 -47 2 -19 5 -38 8 -44 3 -5 6 -14 6 -20 1 -5 7 -8 15 -6 8 2 23 3 32 3 10 0 20 3 23 9 4 5 17 9 30 9 13 0 27 5 30 10 3 6 14 10 23 10 9 0 32 10 51 23 19 12 42 27 50 32 23 15 81 72 81 79 0 4 12 25 26 47 25 40 38 99 25 116 -17 24 -124 83 -149 83 -4 0 -20 -28 -36 -61z"/>
 <path d="M5616 6508 c-9 -17 -16 -39 -16 -48 0 -9 -9 -25 -20 -35 -11 -10 -20 -21 -20 -25 0 -14 -112 -120 -126 -120 -8 0 -17 -7 -20 -15 -4 -8 -13 -15 -21 -15 -8 0 -26 -9 -40 -20 -14 -11 -36 -20 -49 -20 -12 0 -25 -4 -29 -10 -3 -5 -12 -7 -19 -4 -8 3 -17 0 -21 -5 -3 -6 -11 -9 -16 -5 -5 3 -16 0 -24 -6 -8 -7 -24 -10 -35 -7 -12 3 -42 -4 -68 -16 -26 -11 -51 -22 -57 -22 -5 -1 -12 -3 -15 -5 -3 -1 -48 -3 -100 -5 -84 -2 -102 1 -152 24 -32 14 -58 31 -58 37 0 6 -17 19 -37 30 -20 10 -62 36 -92 57 -41 28 -64 37 -96 37 -22 0 -45 -4 -50 -9 -6 -6 -41 -11 -79 -13 -66 -3 -69 -4 -87 -36 -22 -42 -49 -72 -63 -72 -7 0 -19 -9 -29 -20 -9 -11 -23 -20 -31 -20 -7 0 -25 -9 -39 -20 -14 -11 -38 -21 -54 -22 -15 -1 -32 -4 -38 -7 -5 -2 -21 -6 -35 -8 -46 -7 -55 -9 -85 -22 -16 -7 -43 -11 -60 -11 -16 1 -34 2 -38 1 -12 -1 35 -81 89 -154 24 -33 44 -63 44 -69 0 -12 57 -97 86 -126 12 -13 29 -38 38 -57 9 -19 30 -49 46 -67 17 -18 30 -38 30 -46 0 -7 7 -15 15 -18 8 -4 15 -13 15 -20 0 -8 7 -17 15 -20 8 -3 24 -25 35 -49 12 -24 34 -62 50 -84 17 -23 30 -45 30 -50 0 -5 7 -15 16 -22 16 -13 64 -111 68 -139 2 -8 10 -32 19 -52 10 -21 18 -50 19 -65 1 -16 4 -32 7 -38 3 -5 6 -19 8 -30 1 -11 5 -38 8 -60 4 -22 8 -62 10 -90 13 -168 22 -256 25 -270 3 -11 8 -47 12 -85 2 -14 6 -29 10 -35 3 -5 9 -32 13 -60 4 -27 10 -54 13 -60 3 -5 7 -20 8 -33 2 -13 12 -41 23 -63 12 -22 21 -46 21 -54 0 -8 16 -41 35 -74 19 -32 35 -66 35 -75 0 -8 6 -19 13 -23 15 -9 67 -89 67 -102 0 -5 11 -16 25 -25 14 -9 25 -21 25 -26 0 -12 129 -140 141 -140 5 0 16 -11 25 -25 9 -14 21 -25 28 -25 6 0 25 -11 41 -25 17 -14 44 -32 60 -40 17 -8 45 -26 64 -40 19 -14 52 -30 75 -36 23 -6 55 -18 71 -28 42 -24 126 -52 137 -45 5 3 15 0 23 -6 8 -6 19 -9 24 -6 5 4 13 1 16 -5 4 -5 14 -8 22 -5 8 3 20 3 26 -1 7 -5 21 -9 32 -10 11 -1 40 -4 65 -8 82 -12 164 -12 234 1 38 7 75 10 81 7 7 -2 16 0 19 6 4 6 13 8 20 5 8 -3 17 0 21 5 3 6 10 9 15 6 12 -7 104 25 182 66 20 10 44 19 52 19 8 0 28 11 44 25 17 14 37 25 45 25 9 0 19 5 23 11 3 6 22 17 40 25 19 8 34 18 34 23 0 5 17 16 38 25 43 19 66 33 105 64 16 12 32 22 37 22 14 0 110 62 110 71 0 5 6 9 14 9 8 0 37 16 65 35 29 19 67 37 86 41 19 3 39 12 46 20 6 8 15 12 19 9 5 -3 35 11 68 30 33 19 63 35 66 35 9 0 106 101 106 111 0 5 10 23 21 38 12 16 19 33 16 38 -3 5 -1 27 4 49 16 59 19 117 7 132 -6 6 -8 25 -5 42 4 16 2 32 -4 35 -5 4 -7 15 -4 25 3 10 1 21 -4 24 -6 4 -8 13 -5 20 3 8 0 17 -5 21 -6 3 -9 11 -6 16 3 5 -1 23 -9 41 -8 18 -17 46 -21 63 -4 16 -12 36 -18 43 -6 7 -12 25 -13 39 -2 15 -13 40 -25 57 -13 17 -22 38 -22 48 1 9 -5 22 -13 29 -8 6 -14 20 -14 30 0 10 -4 20 -10 24 -12 7 -100 183 -100 199 0 7 -9 21 -20 31 -11 10 -20 27 -20 37 0 10 -6 21 -14 24 -8 3 -20 20 -27 37 -17 42 -100 167 -110 167 -5 0 -9 7 -9 15 0 9 -7 18 -15 21 -8 4 -15 12 -15 20 0 7 -6 17 -13 21 -19 12 -87 98 -87 111 0 6 -13 20 -30 32 -16 12 -30 27 -30 35 0 8 -13 23 -30 35 -16 12 -30 27 -30 33 0 7 -32 40 -70 75 -39 35 -70 68 -70 74 0 14 -115 128 -129 128 -5 0 -49 43 -98 95 -48 52 -93 95 -99 95 -6 0 -37 27 -68 60 -32 33 -61 60 -65 60 -5 0 -65 59 -135 130 -70 72 -131 130 -136 130 -5 0 -16 -14 -24 -32z"/>
 <path d="M4360 6471 c-54 -4 -95 -10 -94 -16 0 -5 6 -25 14 -43 l13 -34 88 4 c91 3 125 16 101 40 -7 7 -12 22 -12 35 0 13 -3 22 -7 21 -5 -1 -51 -4 -103 -7z"/>
 <path d="M4161 6405 c-13 -8 -28 -21 -33 -29 -5 -9 -16 -16 -25 -16 -9 0 -24 -7 -33 -15 -9 -8 -34 -17 -55 -20 -21 -2 -43 -9 -49 -15 -5 -5 -20 -10 -32 -10 -25 0 -40 -15 -24 -25 5 -3 10 -13 10 -21 0 -7 8 -32 17 -54 14 -30 22 -39 36 -34 9 3 30 7 46 9 63 8 219 132 205 164 -4 9 -12 31 -18 49 -12 36 -11 35 -45 17z"/>
 <path d="M4585 6408 c-8 -23 1 -48 24 -64 30 -21 33 -16 17 31 -15 41 -33 56 -41 33z"/>
 <path d="M5025 6331 c-11 -5 -25 -6 -31 -4 -7 2 -14 0 -17 -4 -7 -11 -184 -8 -210 2 -27 11 -41 -8 -26 -36 7 -13 15 -30 19 -38 3 -8 13 -18 21 -21 8 -4 23 -11 34 -17 18 -9 124 -9 213 0 41 5 57 20 46 44 -7 17 -9 26 -13 66 -1 19 -6 20 -36 8z"/>
 <path d="M3586 6257 c-17 -12 -17 -15 0 -50 13 -27 24 -37 40 -37 13 0 26 -5 29 -10 4 -6 15 -8 25 -5 10 3 21 1 25 -5 4 -6 20 -8 40 -4 19 3 35 1 39 -5 11 -17 76 -14 82 4 3 8 -4 35 -16 59 -19 40 -25 46 -63 51 -23 3 -64 4 -92 3 -27 -2 -59 0 -71 5 -12 4 -27 2 -38 -6z"/>
 <path d="M5796 3191 c-3 -5 -45 -9 -93 -10 -90 0 -204 -7 -213 -11 -7 -4 -59 -10 -90 -11 -14 0 -30 -5 -37 -11 -7 -5 -17 -7 -23 -3 -6 4 -17 1 -25 -5 -8 -6 -19 -9 -25 -5 -6 4 -17 2 -24 -4 -7 -6 -28 -12 -47 -14 -19 -2 -47 -9 -63 -15 -16 -7 -44 -14 -64 -17 -19 -2 -61 -18 -92 -34 -32 -17 -60 -28 -63 -25 -8 8 -109 -46 -136 -72 -13 -13 -31 -24 -41 -24 -9 0 -29 -11 -44 -25 -15 -14 -31 -25 -35 -25 -5 0 -16 -11 -25 -25 -9 -14 -21 -25 -26 -25 -14 0 -60 -42 -60 -54 0 -6 -23 -36 -51 -66 -29 -30 -60 -72 -70 -95 -10 -22 -23 -47 -27 -55 -25 -44 -42 -83 -42 -96 0 -8 -7 -26 -16 -39 -9 -13 -13 -29 -10 -34 4 -5 2 -12 -2 -15 -5 -3 -9 -22 -10 -42 -1 -20 -5 -41 -10 -48 -5 -6 -8 -24 -7 -41 1 -16 0 -34 -3 -39 -6 -11 -5 -199 2 -256 2 -19 9 -56 15 -83 6 -26 13 -64 16 -83 2 -20 9 -42 15 -49 5 -6 7 -15 4 -18 -3 -3 1 -16 10 -29 9 -12 16 -29 16 -38 0 -8 14 -42 30 -75 16 -33 30 -66 30 -73 0 -7 14 -31 30 -54 17 -22 30 -47 30 -54 0 -17 40 -84 50 -84 4 0 15 -16 24 -35 9 -19 21 -35 26 -35 6 0 10 -7 10 -15 0 -9 7 -18 15 -21 8 -4 15 -12 15 -20 0 -7 9 -18 20 -24 11 -6 20 -15 20 -19 0 -11 189 -201 199 -201 4 0 21 -13 37 -29 45 -45 180 -121 212 -121 11 0 25 -7 32 -15 7 -9 19 -14 25 -11 7 2 21 -1 31 -8 11 -7 28 -13 39 -13 11 -1 34 -7 50 -14 17 -7 43 -14 59 -16 16 -2 35 -8 42 -14 7 -6 18 -8 24 -4 6 4 17 1 25 -5 8 -6 19 -9 25 -5 5 3 16 3 23 -2 6 -4 32 -9 57 -10 48 -3 92 -8 100 -12 13 -7 363 -5 367 1 2 5 18 8 36 7 61 0 132 6 145 14 6 5 17 5 22 2 6 -4 17 -2 24 4 7 6 31 12 52 14 21 1 44 5 49 8 15 9 118 34 129 31 4 -2 14 3 22 9 8 6 22 13 32 14 9 1 52 18 95 38 43 20 81 37 84 37 13 0 133 83 133 91 0 5 6 9 14 9 8 0 24 13 36 30 12 16 25 30 30 30 11 0 180 168 180 179 0 5 14 19 30 31 17 12 30 28 30 35 0 8 9 19 20 25 11 6 20 17 20 25 0 8 9 19 20 25 11 6 20 17 20 25 0 8 4 15 10 15 5 0 17 16 26 35 9 19 20 35 25 35 4 0 15 15 24 34 9 19 23 37 31 40 8 3 14 12 14 20 0 9 13 30 29 48 15 18 31 42 35 54 3 11 20 36 36 54 17 19 30 38 30 42 0 5 11 24 23 41 13 18 29 46 36 64 7 17 19 34 27 37 8 3 14 12 14 19 0 8 6 20 14 26 8 7 17 24 21 39 4 15 13 35 22 44 8 9 12 21 9 27 -4 5 -1 13 5 16 5 4 8 13 5 20 -2 7 -2 15 1 18 4 5 7 204 3 217 -2 6 -6 28 -14 79 -3 18 -15 51 -26 73 -11 21 -20 45 -20 52 0 7 -14 31 -31 52 -17 22 -38 54 -45 72 -8 17 -19 32 -24 32 -6 0 -10 4 -10 9 0 11 -160 171 -171 171 -5 0 -9 4 -9 9 0 7 -33 30 -145 99 -11 7 -45 24 -75 38 -30 15 -68 33 -83 41 -16 8 -31 12 -34 9 -4 -3 -13 0 -22 8 -16 13 -113 48 -141 51 -9 0 -21 4 -28 9 -6 4 -16 5 -20 2 -5 -3 -21 2 -36 9 -16 8 -32 12 -37 9 -5 -3 -23 2 -41 10 -17 9 -39 14 -49 11 -9 -3 -20 -1 -24 5 -4 6 -15 8 -26 5 -10 -4 -24 -3 -31 2 -7 4 -29 9 -48 10 -40 3 -83 9 -90 13 -9 5 -125 10 -232 10 -59 1 -110 5 -113 10 -8 13 -282 13 -289 1z m270 -254 c4 -4 17 -7 28 -7 26 0 97 -66 90 -83 -2 -7 -15 -17 -29 -23 -19 -9 -27 -9 -36 2 -6 8 -19 14 -28 14 -9 0 -25 6 -36 13 -24 16 -62 19 -70 6 -4 -5 -11 -7 -16 -3 -6 3 -18 -1 -27 -9 -9 -8 -28 -17 -42 -20 -14 -4 -40 -16 -57 -27 l-33 -20 -1 -110 c-1 -60 -2 -116 -3 -122 -1 -7 6 -13 14 -13 8 0 21 -4 28 -9 7 -4 16 -5 19 -2 3 3 20 -6 38 -19 17 -14 37 -25 43 -25 19 0 69 -70 66 -93 -1 -12 -3 -26 -3 -32 -1 -14 -59 -11 -73 3 -7 7 -20 12 -29 12 -10 0 -30 5 -46 11 -31 12 -138 15 -164 5 -9 -4 -27 -8 -40 -10 -24 -3 -52 -11 -79 -25 -8 -4 -26 -5 -40 -1 -20 5 -25 12 -23 34 2 26 46 77 78 90 8 3 15 10 15 15 0 5 10 13 23 16 12 4 36 14 53 22 29 15 32 21 37 76 3 33 3 83 0 113 -6 58 -21 74 -78 88 -16 4 -37 14 -45 21 -32 29 -151 20 -201 -16 -26 -18 -26 -18 -49 6 -22 23 -22 55 -1 55 6 0 33 14 61 30 79 47 174 40 258 -17 50 -33 129 -32 170 2 35 29 92 54 109 48 6 -2 14 1 18 7 7 11 89 9 101 -3z m356 -628 c31 -35 85 -142 93 -184 1 -5 3 -12 4 -15 5 -9 15 -105 15 -145 0 -130 -47 -303 -90 -328 -8 -4 -14 -13 -14 -19 0 -11 -70 -80 -93 -93 -7 -3 -23 -12 -37 -20 -47 -27 -87 -19 -151 31 -32 26 -59 53 -59 61 0 7 -7 24 -15 37 -32 48 -35 214 -6 250 7 8 10 20 6 25 -3 6 3 18 15 28 11 10 20 21 20 24 0 4 17 25 38 46 51 51 82 97 82 121 0 12 4 23 9 26 5 3 7 24 4 45 -5 37 20 128 38 141 4 3 31 4 59 4 46 -1 56 -6 82 -35z m-1146 -24 c14 -27 25 -87 25 -137 0 -10 4 -20 10 -23 5 -4 9 -14 9 -25 0 -10 32 -50 70 -89 39 -38 70 -74 70 -79 0 -5 7 -15 15 -22 8 -7 15 -18 15 -26 0 -7 5 -25 11 -41 34 -83 27 -181 -16 -255 -14 -24 -28 -50 -31 -58 -3 -8 -30 -27 -60 -42 -51 -25 -57 -26 -89 -12 -19 8 -43 14 -54 14 -22 0 -121 92 -121 112 0 8 -9 21 -20 30 -11 10 -22 30 -25 45 -4 15 -11 36 -16 47 -6 10 -12 32 -15 48 -2 17 -8 36 -15 44 -6 8 -8 25 -5 38 3 14 2 28 -4 31 -13 8 -13 152 0 160 6 3 7 17 4 29 -5 22 6 54 57 161 22 48 77 81 132 80 31 -1 40 -6 53 -30z"/>
 <path d="M6309 1995 c-3 -2 -29 -5 -58 -6 -45 -2 -58 -7 -85 -34 -36 -36 -62 -112 -50 -147 4 -13 8 -27 8 -33 1 -5 14 -29 30 -52 22 -33 36 -44 65 -49 20 -3 44 -8 53 -10 19 -6 135 95 156 134 25 49 10 146 -25 159 -10 3 -25 12 -33 18 -18 15 -55 27 -61 20z m9 -127 c19 -19 14 -42 -13 -68 -24 -22 -26 -22 -44 -6 -29 27 -33 66 -7 76 30 12 50 12 64 -2z"/>
 <path d="M5218 1953 c-6 -7 -19 -13 -29 -13 -34 0 -95 -109 -69 -125 5 -3 7 -12 4 -19 -3 -7 2 -19 11 -26 8 -7 15 -18 15 -24 0 -6 17 -24 38 -40 20 -17 41 -36 45 -43 4 -7 17 -13 28 -13 11 0 29 -5 39 -10 12 -6 21 -7 25 0 3 5 12 7 20 4 7 -3 22 3 32 14 55 60 63 72 63 93 0 13 4 30 9 37 20 33 -54 169 -94 173 -69 6 -128 3 -137 -8z m110 -134 c9 -14 6 -22 -14 -42 -21 -21 -28 -23 -49 -13 -43 20 -44 62 -3 81 26 12 48 3 66 -26z"/>
 </g>
<g id="layer104" fill="#dbe5e8" stroke="none">
 <path d="M0 4995 l0 -4995 6000 0 6000 0 0 4995 0 4995 -6000 0 -6000 0 0 -4995z m7072 4615 c331 -23 606 -56 888 -104 526 -91 896 -200 1180 -347 277 -143 530 -389 652 -634 104 -208 161 -507 161 -850 0 -196 -3 -224 -29 -360 -38 -192 -139 -419 -324 -730 -165 -276 -256 -477 -304 -670 -33 -133 -48 -422 -27 -534 17 -91 27 -337 19 -466 -32 -492 -188 -958 -490 -1465 -130 -217 -246 -387 -539 -790 -305 -419 -356 -493 -550 -807 -224 -360 -385 -591 -513 -732 l-48 -54 67 -35 c113 -60 157 -143 137 -260 -23 -140 -120 -275 -238 -333 -166 -82 -251 -32 -309 181 -42 153 -32 143 -112 104 -192 -95 -503 -154 -805 -154 -369 0 -713 83 -940 226 -21 13 -40 24 -42 24 -2 0 -14 -30 -27 -68 -45 -138 -82 -189 -153 -212 -75 -24 -169 13 -246 97 -112 123 -162 333 -105 442 17 34 72 91 88 91 4 0 23 7 43 15 l35 14 -41 61 c-110 162 -222 440 -254 630 -17 96 -19 291 -4 394 5 37 26 117 48 177 81 232 191 373 406 524 13 9 7 21 -34 75 -165 219 -590 847 -816 1207 -120 192 -219 342 -340 518 -390 566 -552 880 -598 1165 -13 82 -16 333 -5 420 25 190 71 351 143 497 l55 113 -49 82 c-28 46 -63 108 -80 138 -119 221 -141 260 -193 335 -26 39 -86 111 -133 160 -72 76 -84 94 -79 115 11 46 65 194 85 233 11 22 16 42 13 45 -11 11 -58 -51 -190 -248 -136 -204 -195 -272 -276 -319 -122 -69 -297 -79 -420 -23 -122 55 -196 143 -244 292 -65 201 -19 523 112 785 92 182 221 341 344 421 158 103 385 137 772 114 115 -6 225 -14 245 -16 20 -2 156 -7 302 -10 l265 -6 90 42 c103 48 111 52 220 92 85 31 351 100 450 117 471 80 935 119 1462 120 l361 1 60 59 c59 57 126 97 186 111 60 14 397 8 668 -10z"/>
 <path d="M5590 9359 c-728 -22 -1349 -111 -1706 -244 -410 -154 -692 -400 -807 -706 -57 -151 -71 -240 -71 -444 0 -167 4 -205 27 -316 30 -141 80 -313 126 -434 45 -117 43 -115 89 -73 37 34 156 98 181 98 6 0 11 3 11 8 9 204 47 337 110 382 43 31 117 29 185 -5 110 -54 244 -230 322 -425 l42 -105 138 -3 c76 -1 176 1 223 5 l85 8 118 155 c64 85 152 211 195 279 90 144 188 255 263 295 40 22 70 30 126 34 67 4 76 3 99 -19 32 -29 51 -66 71 -131 14 -49 15 -50 46 -44 123 25 325 38 512 33 375 -11 714 -72 1146 -208 89 -27 164 -47 167 -44 3 3 -26 38 -65 78 -39 40 -133 151 -211 247 -162 203 -260 312 -382 422 l-87 80 82 82 c77 76 166 208 151 223 -3 3 -25 -14 -48 -37 -174 -175 -394 -263 -658 -264 -378 -2 -600 151 -526 362 21 60 82 135 188 233 92 84 164 178 298 384 53 83 56 90 37 92 -62 7 -286 7 -477 2z"/>
 <path d="M1995 8725 c-76 -27 -148 -141 -131 -209 9 -37 51 -72 131 -111 124 -60 239 -80 283 -49 99 69 48 303 -80 370 -35 18 -150 18 -203 -1z"/>
 <path d="M1634 8085 c-28 -20 -32 -157 -7 -204 25 -47 41 -49 58 -7 17 40 20 167 5 195 -13 26 -35 32 -56 16z"/>
 <path d="M1892 8023 c-64 -64 -82 -243 -24 -243 43 0 83 83 85 177 0 46 -4 68 -16 80 -14 15 -18 13 -45 -14z"/>
 <path d="M2134 7913 c-58 -63 -85 -155 -51 -177 42 -27 130 76 131 157 1 39 -1 42 -26 45 -20 2 -35 -5 -54 -25z"/>
 <path d="M9866 7838 c-101 -403 -462 -689 -1021 -812 -166 -36 -284 -48 -453 -44 -83 1 -152 0 -152 -3 0 -4 51 -45 114 -92 156 -118 339 -292 453 -432 120 -149 249 -367 324 -550 39 -93 59 -117 59 -68 0 50 59 252 105 361 48 113 124 257 273 515 151 259 219 416 260 592 31 133 69 545 50 545 -5 0 -10 -6 -12 -12z"/>
 <path d="M5233 7779 c-62 -11 -92 -30 -159 -101 -59 -61 -140 -175 -131 -184 2 -2 24 7 49 21 63 35 224 100 286 115 29 6 54 15 56 19 8 13 -24 108 -42 123 -13 11 -28 13 -59 7z"/>
 <path d="M3592 7545 c-24 -30 -49 -133 -54 -220 l-3 -59 100 -13 c108 -13 212 -42 288 -80 27 -14 51 -22 54 -20 2 3 -9 34 -25 69 -81 179 -209 321 -308 342 -27 6 -35 3 -52 -19z"/>
 <path d="M4270 7000 c-113 -4 -134 -7 -131 -20 2 -8 7 -46 12 -85 9 -78 45 -286 54 -316 6 -17 17 -19 116 -19 l110 0 -7 63 c-7 74 9 194 41 296 13 41 22 78 19 82 -3 5 -21 7 -42 6 -20 -1 -98 -4 -172 -7z"/>
 <path d="M4557 6904 c-3 -5 -12 -36 -20 -69 -36 -146 -32 -252 13 -296 93 -94 459 -96 616 -4 49 29 112 98 121 133 7 29 -5 38 -66 48 -25 4 -53 9 -61 10 -8 2 -85 13 -170 24 -261 35 -332 58 -395 127 -18 19 -35 31 -38 27z"/>
 <path d="M4065 6700 c-3 -5 -90 -50 -193 -100 -207 -100 -325 -168 -317 -181 18 -28 260 -49 359 -30 115 21 223 91 213 136 -3 11 -13 57 -23 103 -18 79 -26 94 -39 72z"/>
 <path d="M5364 6618 c-34 -67 -119 -149 -183 -179 -30 -13 -51 -29 -51 -38 0 -22 26 -131 33 -138 8 -7 130 33 191 64 79 40 152 121 174 195 11 35 18 68 15 74 -4 10 -130 74 -146 74 -4 0 -19 -23 -33 -52z"/>
 <path d="M5624 6524 c-33 -102 -78 -169 -151 -224 -76 -56 -182 -105 -263 -120 -36 -7 -86 -21 -112 -31 -25 -10 -78 -23 -118 -29 -112 -16 -200 2 -265 55 -22 18 -56 41 -75 51 -19 11 -53 31 -75 46 -39 25 -44 26 -152 21 l-113 -6 -19 -31 c-45 -72 -154 -145 -247 -165 -33 -7 -74 -17 -92 -22 -18 -6 -57 -13 -87 -16 l-54 -6 26 -46 c25 -45 205 -315 384 -576 170 -248 223 -400 244 -700 16 -227 43 -373 103 -540 131 -372 436 -654 833 -768 192 -56 369 -70 516 -42 212 41 387 125 763 366 88 57 228 129 302 155 146 51 244 171 263 320 19 156 -56 408 -224 743 -213 427 -426 681 -1141 1361 -249 237 -238 228 -246 204z"/>
 <path d="M4270 6458 c0 -7 9 -28 21 -47 l20 -33 79 4 c43 1 82 6 86 10 4 4 3 22 -2 40 l-10 33 -97 3 c-74 2 -97 0 -97 -10z"/>
 <path d="M4126 6374 c-26 -19 -80 -43 -120 -55 -39 -11 -77 -22 -83 -25 -10 -2 -8 -17 8 -56 11 -29 25 -57 30 -62 11 -12 111 18 160 49 41 26 99 92 99 113 0 18 -29 72 -38 71 -4 0 -29 -16 -56 -35z"/>
 <path d="M4580 6396 c0 -16 26 -46 41 -46 11 0 11 3 -1 34 -10 27 -40 36 -40 12z"/>
 <path d="M4985 6319 c-38 -12 -170 -14 -213 -5 -32 8 -34 7 -27 -15 23 -77 92 -105 216 -90 117 15 117 16 98 84 -11 39 -20 43 -74 26z"/>
 <path d="M3580 6249 c0 -23 32 -70 53 -78 34 -13 204 -34 221 -28 13 5 12 11 -3 51 -9 25 -19 47 -21 49 -11 10 -250 15 -250 6z"/>
 <path d="M5700 3183 c-103 -5 -265 -25 -385 -48 -483 -93 -807 -329 -934 -681 -48 -133 -61 -219 -57 -394 4 -175 24 -269 96 -454 128 -326 406 -653 668 -785 138 -70 351 -127 562 -152 149 -17 441 -7 600 21 304 53 482 131 679 295 186 155 355 367 596 745 12 19 38 60 57 90 78 123 88 141 109 205 30 93 23 275 -14 381 -144 412 -572 671 -1254 759 -112 14 -570 26 -723 18z m423 -263 c56 -28 73 -51 58 -79 -17 -31 -39 -32 -91 -6 -27 14 -62 25 -77 25 -15 0 -67 -19 -116 -42 l-88 -42 3 -114 3 -114 54 -21 c35 -13 72 -37 103 -69 42 -41 49 -53 46 -81 -3 -30 -6 -32 -38 -31 -19 1 -60 11 -90 23 -78 29 -161 27 -262 -6 -91 -30 -114 -25 -111 23 3 39 76 105 148 135 l56 23 -3 114 -3 113 -80 35 c-100 44 -147 46 -209 10 -53 -31 -83 -28 -92 10 -8 31 11 53 72 83 66 34 164 27 258 -17 83 -39 108 -40 166 -5 119 69 202 79 293 33z m294 -596 c69 -52 116 -193 116 -354 0 -171 -48 -310 -139 -402 -91 -92 -184 -102 -260 -27 -57 56 -86 130 -87 224 0 100 24 164 92 244 86 99 91 109 102 212 12 116 27 134 102 126 27 -2 60 -13 74 -23z m-1142 -27 c8 -12 19 -52 24 -88 13 -93 33 -132 105 -207 75 -79 104 -132 117 -214 26 -160 -70 -326 -185 -321 -132 5 -244 134 -297 341 -47 187 1 422 100 489 47 32 115 32 136 0z"/>
 <path d="M6201 1971 c-45 -24 -81 -85 -81 -136 1 -85 63 -165 130 -165 41 0 77 20 121 67 78 81 90 149 37 200 -58 54 -143 68 -207 34z m117 -103 c28 -28 2 -88 -38 -88 -40 0 -66 60 -38 88 7 7 24 12 38 12 14 0 31 -5 38 -12z"/>
 <path d="M5236 1955 c-54 -19 -79 -39 -101 -78 -16 -30 -17 -41 -7 -74 16 -53 73 -117 128 -143 40 -20 50 -21 85 -11 46 14 93 71 103 126 22 116 -96 218 -208 180z m84 -115 c25 -25 25 -45 -1 -71 -30 -30 -89 -5 -89 38 0 18 37 53 55 53 8 0 24 -9 35 -20z"/>
 </g>
<g id="layer105" fill="#ffffff" stroke="none">
 <!-- <path d="M0 4995 l0 -4995 6000 0 6000 0 0 4995 0 4995 -6000 0 -6000 0 0 -4995z m6915 4632 c72 -1 135 -6 142 -10 7 -4 34 -5 61 -1 33 4 52 2 57 -5 5 -9 24 -10 61 -5 36 4 59 2 68 -5 9 -8 28 -10 50 -5 23 4 42 2 50 -5 9 -8 28 -10 49 -6 21 4 37 3 41 -4 4 -6 18 -8 32 -5 13 3 31 1 39 -6 9 -7 26 -9 45 -5 19 4 36 2 45 -5 8 -6 23 -9 35 -5 12 4 26 2 33 -3 11 -10 28 -12 104 -12 18 0 34 -4 37 -9 4 -5 15 -7 25 -4 10 3 22 0 25 -6 4 -6 20 -8 35 -5 16 3 31 1 35 -4 3 -6 15 -8 25 -5 10 3 22 0 25 -6 4 -6 18 -8 31 -5 12 3 26 1 29 -5 4 -5 13 -8 20 -5 8 3 17 1 21 -5 3 -6 17 -8 30 -5 12 3 26 1 29 -5 4 -5 13 -8 20 -5 8 3 17 0 21 -5 3 -6 11 -9 16 -6 5 4 15 3 21 -2 7 -4 30 -8 51 -9 21 -1 44 -7 51 -13 7 -6 15 -8 18 -5 7 6 129 -24 144 -37 6 -5 14 -6 17 -2 4 3 13 1 20 -5 8 -7 16 -10 19 -7 6 6 236 -66 337 -107 41 -16 85 -38 99 -48 13 -11 28 -17 33 -15 27 18 375 -204 392 -249 4 -9 12 -16 19 -16 16 0 158 -140 158 -156 0 -7 6 -14 14 -17 30 -12 183 -258 171 -276 -2 -5 2 -14 10 -21 14 -11 37 -70 40 -100 1 -8 7 -25 14 -38 6 -12 11 -28 10 -35 -1 -6 3 -25 10 -41 6 -16 10 -35 7 -42 -3 -8 -1 -16 5 -20 6 -3 8 -13 5 -21 -4 -9 -1 -22 5 -29 6 -8 9 -20 6 -29 -4 -8 -1 -17 4 -21 6 -3 8 -19 5 -35 -3 -15 -1 -31 5 -35 7 -4 8 -23 4 -49 -3 -24 -2 -46 2 -48 5 -3 7 -115 5 -249 -1 -134 -3 -256 -3 -273 0 -16 -3 -37 -6 -45 -3 -8 -7 -30 -9 -49 -2 -18 -8 -39 -14 -45 -5 -7 -7 -16 -3 -19 3 -4 1 -13 -5 -20 -7 -8 -10 -16 -7 -19 12 -12 -87 -268 -104 -268 -6 0 -8 -7 -5 -15 4 -8 -1 -17 -10 -21 -9 -3 -13 -10 -10 -15 3 -6 -1 -20 -10 -33 -8 -13 -31 -54 -51 -92 -20 -38 -43 -74 -51 -80 -8 -6 -14 -19 -14 -28 0 -9 -9 -25 -20 -36 -11 -11 -20 -24 -20 -29 0 -16 -41 -81 -51 -81 -5 0 -9 -6 -9 -14 0 -18 -89 -186 -99 -186 -10 0 -31 -46 -31 -68 0 -9 -10 -33 -22 -52 -12 -19 -22 -39 -23 -45 0 -5 -13 -47 -28 -93 -15 -46 -27 -88 -27 -95 0 -7 -6 -24 -14 -39 -8 -15 -12 -36 -9 -46 2 -11 0 -23 -6 -26 -6 -4 -8 -18 -5 -31 3 -12 1 -26 -5 -30 -8 -4 -9 -24 -5 -56 4 -31 2 -54 -5 -63 -13 -16 -11 -222 2 -244 5 -7 6 -21 2 -31 -3 -11 -1 -22 5 -26 7 -4 9 -19 5 -36 -4 -16 -3 -33 0 -40 10 -15 10 -443 1 -458 -4 -6 -5 -29 -1 -50 4 -24 2 -42 -4 -46 -6 -3 -8 -17 -5 -30 3 -12 1 -26 -6 -30 -7 -4 -9 -18 -5 -35 4 -16 2 -31 -5 -35 -6 -4 -8 -15 -5 -25 3 -10 1 -21 -4 -24 -6 -4 -8 -13 -4 -21 3 -9 0 -21 -6 -29 -6 -7 -8 -15 -5 -18 6 -7 -24 -129 -37 -144 -5 -6 -6 -13 -4 -16 3 -3 0 -18 -6 -34 -7 -16 -12 -32 -11 -36 3 -14 -60 -183 -74 -199 -8 -9 -11 -18 -8 -21 13 -14 -186 -438 -206 -438 -6 0 -10 -9 -10 -20 0 -11 -9 -29 -20 -40 -11 -11 -20 -25 -20 -31 0 -39 -476 -749 -502 -749 -4 0 -8 -7 -8 -15 0 -9 -7 -18 -15 -21 -8 -4 -15 -11 -15 -16 0 -12 -206 -298 -226 -314 -8 -6 -14 -16 -14 -21 0 -6 -10 -21 -22 -35 -13 -13 -30 -37 -38 -53 -8 -15 -27 -41 -42 -56 -16 -15 -28 -34 -28 -42 0 -9 -13 -29 -30 -45 -16 -17 -30 -35 -30 -41 0 -16 -51 -91 -61 -91 -5 0 -9 -7 -9 -15 0 -19 -109 -195 -121 -195 -5 0 -9 -7 -9 -15 0 -18 -3 -22 -123 -208 -49 -75 -93 -137 -98 -137 -5 0 -9 -6 -9 -14 0 -7 -10 -24 -22 -38 -13 -13 -29 -36 -37 -51 -8 -14 -29 -43 -48 -63 -18 -20 -33 -40 -33 -45 0 -5 -9 -14 -20 -21 -11 -7 -20 -18 -20 -25 0 -6 -13 -21 -30 -33 -16 -12 -30 -27 -30 -34 0 -8 -7 -19 -15 -26 -22 -18 -19 -25 21 -39 19 -7 38 -19 41 -27 3 -8 10 -14 15 -14 16 0 78 -69 90 -99 14 -35 19 -139 8 -146 -5 -3 -7 -12 -4 -19 3 -8 0 -17 -5 -21 -6 -3 -9 -11 -5 -16 3 -5 0 -17 -7 -25 -7 -9 -13 -23 -14 -33 -2 -21 -63 -111 -75 -111 -6 0 -10 -7 -10 -15 0 -9 -11 -20 -24 -25 -13 -5 -30 -17 -37 -28 -19 -25 -66 -55 -77 -48 -6 3 -15 -1 -22 -9 -15 -18 -88 -29 -131 -20 -66 15 -139 119 -145 208 -1 15 -8 34 -14 42 -6 8 -9 19 -6 24 4 5 1 13 -5 16 -5 4 -8 13 -5 20 10 27 -20 37 -60 19 -22 -9 -52 -22 -69 -29 -16 -7 -47 -20 -67 -29 -20 -9 -40 -16 -45 -15 -4 1 -21 -3 -36 -9 -16 -7 -32 -10 -37 -7 -5 3 -12 0 -15 -6 -4 -5 -13 -8 -21 -5 -7 3 -16 1 -20 -5 -3 -6 -12 -8 -20 -5 -7 3 -16 0 -20 -5 -3 -6 -15 -9 -25 -6 -10 3 -22 1 -25 -4 -3 -6 -15 -7 -25 -4 -11 4 -26 1 -34 -5 -8 -6 -23 -9 -35 -5 -12 4 -27 1 -35 -5 -8 -6 -27 -11 -42 -10 -15 1 -30 1 -33 0 -15 -6 -433 -4 -436 2 -3 4 -18 5 -34 1 -17 -3 -36 0 -44 6 -8 7 -25 9 -40 5 -15 -3 -32 -1 -41 6 -8 6 -23 9 -34 5 -10 -3 -22 -1 -25 4 -4 6 -13 8 -20 5 -8 -3 -17 -1 -20 5 -4 6 -13 8 -20 5 -8 -3 -17 -1 -20 5 -4 6 -13 8 -20 5 -8 -3 -17 0 -21 5 -3 6 -10 9 -15 6 -5 -3 -21 0 -37 7 -15 6 -31 11 -35 10 -14 -3 -142 48 -158 63 -9 8 -21 15 -26 15 -16 0 -117 50 -136 67 -16 14 -18 13 -29 -13 -6 -16 -13 -40 -15 -53 -1 -13 -10 -31 -18 -40 -9 -10 -13 -20 -10 -24 4 -3 -5 -26 -20 -51 -26 -45 -88 -92 -105 -82 -5 4 -12 2 -15 -3 -8 -12 -74 -12 -82 0 -3 5 -9 7 -14 4 -17 -11 -72 26 -136 92 -35 35 -64 69 -64 75 0 6 -8 20 -17 30 -9 10 -17 26 -18 36 0 10 -9 35 -19 55 -9 21 -14 42 -11 47 3 6 3 16 -2 22 -11 17 -13 127 -2 134 4 2 6 11 3 18 -3 7 2 19 11 26 8 7 15 19 15 28 0 18 38 62 53 62 6 0 18 7 28 16 9 8 30 17 45 19 16 2 30 4 31 4 1 1 -9 12 -22 26 -13 14 -30 41 -39 60 -9 19 -21 37 -26 40 -6 3 -10 15 -10 26 0 10 -4 19 -10 19 -13 0 -82 138 -75 149 2 5 -2 14 -10 21 -17 14 -89 226 -81 239 4 5 1 13 -5 16 -5 4 -8 14 -5 22 3 8 3 20 -1 26 -5 7 -9 21 -10 32 -1 11 -5 40 -8 65 -10 83 -5 312 9 380 3 14 7 43 11 65 3 22 13 50 21 63 9 13 17 37 19 52 4 30 29 84 50 110 7 8 15 27 18 41 4 14 25 46 47 70 22 24 40 48 40 52 0 11 139 147 150 147 6 0 10 4 10 10 0 5 18 22 40 36 45 30 46 46 4 91 -13 14 -24 29 -24 33 0 5 -13 22 -30 40 -16 18 -30 36 -30 41 0 4 -11 20 -25 35 -14 15 -25 33 -25 40 0 7 -16 29 -35 50 -19 20 -35 43 -35 50 0 8 -4 14 -8 14 -10 0 -122 165 -122 179 0 4 -11 19 -23 32 -31 32 -142 198 -151 227 -4 12 -12 22 -17 22 -5 0 -16 18 -25 40 -9 22 -20 40 -24 40 -8 0 -80 105 -80 118 0 5 -14 24 -30 42 -17 18 -30 37 -30 41 0 5 -20 36 -44 71 -24 35 -52 79 -62 98 -11 19 -81 129 -157 243 -75 115 -137 212 -137 218 0 5 -4 9 -9 9 -10 0 -141 192 -141 207 0 5 -9 18 -20 28 -11 10 -20 24 -20 32 0 7 -4 13 -9 13 -9 0 -106 146 -118 177 -4 10 -17 32 -29 48 -20 27 -61 99 -129 228 -14 26 -23 52 -20 56 2 5 -3 19 -13 32 -23 30 -52 92 -52 111 0 8 -5 19 -11 25 -5 5 -11 21 -13 34 -1 13 -8 34 -15 47 -6 12 -9 27 -6 32 3 5 1 11 -4 15 -5 3 -10 13 -10 23 -1 30 -7 61 -14 68 -4 4 -4 17 -1 29 3 13 1 26 -5 29 -6 4 -8 24 -5 50 4 27 2 46 -5 50 -14 9 -15 182 -1 191 6 4 11 30 10 58 0 51 5 114 10 120 1 1 4 13 6 27 1 14 5 39 9 55 3 17 6 39 6 49 0 11 5 29 12 40 6 12 12 33 13 47 1 23 21 76 45 121 5 10 9 24 9 31 0 8 11 31 25 51 14 20 25 43 25 51 0 8 8 23 18 33 16 16 17 22 5 37 -7 11 -13 25 -13 32 0 7 -9 22 -20 33 -11 11 -20 28 -20 38 0 11 -9 27 -20 37 -11 10 -20 22 -20 27 0 6 -9 21 -20 35 -11 14 -20 33 -20 43 0 9 -14 34 -30 55 -17 21 -33 50 -37 64 -3 14 -15 37 -25 51 -32 41 -108 160 -108 168 0 4 -9 13 -20 20 -11 7 -20 16 -20 22 0 5 -37 45 -82 89 -68 65 -80 81 -70 93 6 8 9 18 5 21 -3 4 -1 13 5 20 7 8 10 16 7 19 -8 7 43 149 61 169 8 9 11 19 7 22 -10 6 -28 -3 -34 -18 -10 -25 -103 -155 -110 -155 -5 0 -9 -8 -9 -19 0 -10 -10 -29 -23 -43 -12 -14 -30 -41 -41 -61 -10 -20 -34 -52 -52 -73 -19 -20 -34 -39 -34 -42 0 -2 -23 -27 -51 -54 -53 -52 -160 -108 -213 -114 -17 -1 -32 -3 -33 -4 -4 -2 -172 -2 -175 0 -2 1 -16 3 -32 5 -15 2 -36 10 -45 18 -9 8 -22 12 -28 10 -7 -3 -16 2 -19 11 -3 9 -14 16 -25 16 -10 0 -22 6 -26 13 -4 6 -17 17 -27 23 -11 6 -24 19 -30 29 -6 10 -20 28 -31 41 -12 12 -27 35 -34 51 -7 15 -20 41 -28 56 -8 16 -12 31 -9 34 3 4 1 12 -5 19 -16 19 -22 84 -21 224 1 140 5 187 16 213 5 10 10 32 11 50 2 18 4 34 5 37 1 3 2 8 1 12 -3 19 69 197 93 232 14 22 29 51 32 65 8 33 92 171 105 171 5 0 9 7 9 15 0 8 9 20 20 27 11 7 20 17 20 22 0 15 72 86 87 86 7 0 17 8 22 19 25 46 240 149 287 137 12 -3 26 -1 29 4 4 6 15 8 25 5 10 -3 21 -1 25 5 4 7 23 9 50 4 24 -3 49 -3 56 2 18 11 302 12 317 1 7 -6 48 -7 92 -4 45 3 83 1 86 -4 3 -5 29 -9 57 -9 29 0 99 -3 157 -6 58 -3 184 -6 280 -7 l175 -2 87 43 c96 47 160 72 196 77 13 2 28 8 35 13 15 12 141 54 153 51 5 -1 22 3 37 9 16 7 32 10 37 7 5 -3 12 0 15 6 4 5 13 8 21 5 7 -3 16 -1 20 5 3 6 12 8 20 5 7 -3 16 0 20 5 3 6 15 9 25 6 10 -3 22 -1 25 5 3 5 12 7 20 4 7 -3 16 0 20 5 3 6 19 8 35 5 15 -3 31 -1 35 5 3 6 15 9 25 6 10 -3 22 -1 25 5 4 5 21 7 39 4 20 -4 36 -2 40 5 4 6 18 8 30 5 13 -3 27 -1 30 5 4 6 19 7 35 4 16 -4 31 -2 35 5 4 6 20 8 40 4 20 -3 35 -1 40 6 4 7 18 9 36 5 18 -4 36 -2 44 5 9 7 26 9 45 5 19 -4 36 -2 45 5 9 8 28 10 49 6 22 -4 37 -2 42 5 4 7 23 9 56 5 33 -5 55 -3 64 5 9 7 31 9 62 5 27 -3 52 -3 56 1 9 9 89 11 586 11 l355 1 70 67 c72 69 157 118 187 108 10 -3 24 -2 32 3 8 4 90 7 183 5 92 -1 227 -4 298 -5z"/> -->
 <path d="M5475 9351 c-5 -5 -161 -11 -284 -11 -29 0 -59 -4 -66 -10 -8 -7 -28 -8 -49 -4 -23 4 -42 2 -50 -6 -10 -7 -30 -9 -60 -5 -31 5 -51 3 -61 -5 -9 -7 -27 -10 -45 -7 -16 4 -32 2 -35 -3 -4 -6 -25 -10 -48 -9 -23 1 -64 -2 -92 -6 -27 -4 -61 -7 -75 -7 -14 0 -30 -4 -36 -9 -6 -5 -19 -7 -28 -3 -9 3 -23 1 -31 -6 -8 -7 -22 -9 -31 -6 -9 4 -23 1 -30 -5 -8 -6 -21 -8 -30 -5 -9 4 -23 1 -30 -5 -8 -6 -21 -8 -30 -5 -9 4 -23 1 -30 -5 -8 -6 -20 -9 -28 -6 -8 3 -29 -1 -45 -9 -17 -9 -40 -13 -50 -9 -11 3 -22 1 -26 -5 -4 -6 -13 -9 -20 -6 -7 2 -25 -2 -39 -10 -15 -7 -30 -13 -34 -12 -4 1 -20 -4 -36 -11 -16 -6 -31 -9 -34 -6 -3 2 -10 1 -16 -4 -12 -9 -84 -35 -101 -36 -5 -1 -20 -7 -33 -13 -12 -7 -26 -11 -30 -8 -4 2 -26 -6 -49 -17 -127 -66 -193 -102 -255 -142 -38 -25 -71 -45 -73 -45 -2 0 -15 -10 -28 -22 -34 -34 -81 -72 -103 -84 -10 -6 -23 -20 -29 -30 -5 -10 -37 -53 -70 -94 -66 -82 -132 -203 -160 -290 -10 -30 -22 -60 -26 -66 -5 -6 -6 -14 -2 -17 3 -4 1 -13 -5 -20 -7 -8 -9 -17 -5 -20 3 -4 0 -13 -6 -21 -7 -8 -10 -24 -6 -35 3 -10 1 -22 -5 -26 -7 -5 -9 -20 -6 -40 4 -19 2 -36 -4 -40 -13 -8 -13 -202 0 -210 7 -4 8 -24 5 -50 -5 -28 -3 -45 5 -50 7 -4 9 -18 5 -36 -4 -18 -2 -36 5 -44 6 -8 9 -19 6 -24 -4 -5 -2 -13 4 -16 6 -4 10 -14 9 -23 -1 -10 1 -24 4 -32 7 -18 58 -209 62 -230 1 -8 7 -26 13 -40 31 -69 71 -184 66 -192 -16 -25 54 3 86 35 14 13 55 39 93 56 64 30 67 33 69 69 3 67 6 97 12 132 4 19 7 43 7 53 0 32 36 101 72 139 38 40 97 59 121 39 7 -6 15 -8 18 -5 21 20 218 -116 218 -151 0 -7 7 -15 15 -19 8 -3 15 -10 15 -15 0 -6 11 -22 25 -37 14 -15 25 -33 25 -40 0 -8 9 -23 20 -34 11 -11 20 -29 20 -39 0 -11 5 -23 11 -27 17 -10 69 -129 73 -166 l3 -33 108 -3 c66 -2 112 1 120 8 8 7 53 10 116 8 l103 -3 14 28 c7 15 17 27 23 27 5 0 9 5 9 12 0 6 46 72 103 147 57 75 122 169 146 210 24 40 51 81 60 90 9 9 23 29 31 45 8 16 25 35 37 44 13 8 23 20 23 26 0 13 41 56 54 56 4 0 21 14 38 30 17 17 35 29 42 27 6 -3 19 3 30 12 12 10 34 15 64 14 26 -1 52 3 58 8 8 7 14 7 18 0 4 -6 12 -8 19 -5 18 7 67 -34 67 -56 0 -9 7 -23 15 -30 8 -7 20 -31 27 -54 15 -54 27 -69 43 -56 7 6 19 8 28 4 8 -3 18 0 22 6 4 6 20 8 40 4 19 -3 35 -1 39 5 5 7 22 9 46 5 22 -4 47 -3 57 1 26 10 414 12 420 1 3 -5 30 -6 59 -2 34 4 55 2 60 -5 4 -6 20 -8 39 -5 20 4 36 2 40 -4 4 -7 19 -9 35 -5 16 4 31 2 35 -5 4 -6 20 -8 40 -4 18 3 35 1 39 -4 3 -6 15 -8 25 -5 10 3 22 0 25 -5 3 -6 15 -8 25 -5 10 3 22 0 25 -6 4 -5 13 -8 21 -4 9 3 21 0 29 -6 7 -6 20 -9 29 -5 8 3 18 0 22 -5 3 -6 11 -9 16 -5 5 3 16 1 23 -5 7 -6 20 -9 29 -5 8 3 18 0 22 -5 3 -6 10 -9 15 -6 5 3 21 0 37 -6 15 -6 42 -13 58 -14 17 -2 44 -9 60 -16 17 -6 39 -13 50 -15 11 -1 34 -8 50 -15 17 -7 33 -12 37 -11 4 1 52 -14 108 -32 l102 -34 -46 47 c-25 26 -46 52 -46 58 0 6 -11 18 -25 27 -14 9 -25 23 -25 31 0 8 -9 19 -20 25 -11 6 -20 17 -20 24 0 8 -11 21 -25 30 -14 9 -25 23 -25 30 0 8 -7 16 -15 20 -8 3 -15 12 -15 20 0 9 -9 20 -20 26 -11 6 -20 16 -20 21 0 6 -11 20 -25 31 -14 11 -25 24 -25 30 0 5 -11 19 -25 30 -14 11 -25 24 -25 29 0 5 -16 23 -35 40 -19 17 -35 35 -35 40 0 14 -175 189 -188 189 -7 0 -19 11 -28 25 -9 14 -22 25 -30 25 -24 0 -26 21 -3 46 12 13 28 24 34 24 12 0 85 71 85 84 0 9 47 74 72 99 10 10 18 25 18 34 0 12 -11 7 -38 -20 -21 -20 -41 -37 -44 -37 -3 0 -20 -13 -37 -29 -17 -15 -45 -36 -63 -45 -18 -10 -51 -28 -73 -42 -22 -13 -44 -22 -50 -20 -5 2 -17 -2 -25 -9 -21 -17 -78 -35 -111 -35 -15 0 -31 -5 -35 -11 -3 -6 -17 -8 -29 -5 -13 3 -26 2 -30 -4 -3 -5 -19 -7 -35 -3 -17 3 -36 1 -42 -4 -13 -10 -120 -9 -208 2 -25 3 -54 6 -65 8 -11 1 -25 5 -31 9 -5 4 -28 9 -50 12 -21 2 -52 10 -69 16 -50 19 -135 73 -135 87 0 7 -9 17 -20 23 -11 6 -20 18 -20 26 0 8 -5 25 -12 37 -6 12 -12 42 -13 67 -1 57 56 182 97 211 15 11 28 27 28 35 0 8 6 14 13 14 7 0 23 14 35 30 13 17 28 30 35 30 16 0 67 52 67 67 0 6 11 20 25 31 14 11 25 24 25 29 0 5 14 23 30 41 17 18 30 35 30 37 0 7 101 159 109 165 17 12 52 71 49 82 -3 8 -85 12 -296 13 -160 1 -294 -1 -297 -4z"/>
 <path d="M2009 8722 c-11 -8 -23 -12 -25 -9 -9 9 -81 -77 -103 -122 -26 -56 -26 -70 3 -103 25 -27 199 -118 228 -118 9 0 19 -4 22 -9 3 -5 15 -7 25 -4 10 3 22 0 25 -6 9 -14 53 -14 61 0 4 5 12 8 18 6 41 -13 84 141 53 191 -4 7 -5 16 -2 21 3 5 -5 25 -19 45 -14 20 -25 39 -25 41 0 10 -49 51 -75 64 -41 20 -159 22 -186 3z"/>
 <path d="M1626 8055 c-18 -27 -22 -120 -6 -130 6 -4 8 -14 5 -24 -7 -22 18 -56 34 -47 7 5 17 20 23 34 12 30 14 147 3 175 -10 25 -40 21 -59 -8z"/>
 <path d="M1890 8022 c-17 -18 -29 -36 -26 -41 4 -5 1 -22 -5 -38 -7 -15 -11 -36 -10 -46 1 -10 -3 -24 -9 -32 -8 -10 -6 -21 8 -46 30 -54 45 -47 79 36 30 73 34 158 9 184 -13 12 -19 10 -46 -17z"/>
 <path d="M2144 7914 c-52 -54 -85 -174 -48 -174 19 0 94 61 94 77 0 6 8 25 18 42 12 23 14 35 7 47 -19 29 -48 32 -71 8z"/>
 <path d="M9869 7823 c-1 -5 -1 -11 0 -15 3 -28 -69 -188 -120 -263 -31 -47 -194 -215 -208 -215 -5 0 -11 -7 -15 -15 -3 -8 -12 -15 -21 -15 -8 0 -15 -4 -15 -9 0 -13 -93 -71 -113 -71 -10 0 -17 -4 -17 -10 0 -5 -21 -19 -47 -31 -27 -11 -70 -32 -96 -46 -55 -28 -185 -72 -236 -79 -19 -2 -40 -9 -48 -16 -7 -6 -16 -8 -20 -5 -3 4 -12 2 -19 -4 -7 -6 -30 -12 -51 -13 -21 -2 -45 -6 -53 -9 -8 -3 -22 -6 -30 -6 -30 -2 -75 -8 -80 -11 -18 -10 -389 -15 -418 -6 -13 5 -22 3 -22 -3 0 -6 6 -11 14 -11 8 0 28 -13 46 -30 18 -16 36 -30 40 -30 4 0 22 -13 40 -30 18 -16 36 -30 41 -30 5 0 14 -9 21 -20 7 -11 18 -20 24 -20 6 0 25 -18 43 -40 17 -22 37 -40 43 -40 15 0 178 -162 178 -176 0 -7 16 -24 35 -38 19 -15 35 -33 35 -40 0 -8 7 -16 15 -20 8 -3 15 -10 15 -15 0 -5 14 -23 30 -41 17 -18 30 -38 30 -46 0 -8 4 -14 9 -14 13 0 121 -172 121 -192 0 -10 4 -18 10 -18 12 0 62 -98 56 -109 -3 -5 6 -26 20 -47 15 -21 36 -62 47 -92 22 -58 39 -58 39 2 0 20 4 38 9 41 4 3 6 11 3 19 -3 7 0 26 7 42 6 16 13 39 15 51 1 12 10 39 19 60 22 49 29 68 49 124 9 25 28 61 41 79 14 19 25 39 25 45 0 20 60 135 70 135 5 0 10 8 10 19 0 10 7 24 15 31 8 7 15 17 15 23 0 16 132 237 141 237 5 0 9 6 9 13 0 20 30 77 40 77 5 0 16 21 25 48 27 75 69 174 99 232 8 14 11 30 9 37 -2 7 1 22 8 35 7 13 12 30 11 40 -2 9 2 19 7 22 6 4 8 13 4 21 -3 9 0 21 6 29 6 7 8 16 4 19 -3 4 0 13 6 21 7 9 10 24 6 36 -4 12 -2 27 4 34 6 7 10 26 10 42 0 16 2 49 5 74 9 77 17 260 11 260 -3 0 -6 -3 -6 -7z"/>
 <path d="M5190 7769 c-14 -6 -28 -17 -33 -25 -4 -8 -14 -14 -20 -14 -16 0 -87 -72 -87 -88 0 -6 -9 -17 -20 -24 -11 -7 -20 -17 -20 -23 0 -5 -9 -21 -20 -35 -11 -14 -20 -28 -20 -32 0 -16 38 -7 70 17 36 26 129 65 168 70 13 2 29 8 36 15 8 6 18 10 22 9 44 -7 73 44 47 81 -8 12 -12 24 -9 27 3 3 -2 12 -12 19 -20 16 -67 17 -102 3z"/>
 <path d="M3584 7503 c-10 -27 -22 -53 -27 -60 -5 -7 -6 -21 -2 -33 4 -12 2 -27 -5 -34 -7 -10 -8 -30 -3 -63 9 -48 9 -48 48 -48 22 0 45 -4 52 -8 7 -4 23 -5 36 -1 14 3 28 1 32 -5 3 -6 11 -9 16 -6 5 4 14 3 21 -1 7 -4 23 -9 35 -10 13 -2 37 -10 55 -18 17 -9 35 -16 40 -16 6 0 21 -9 36 -20 41 -33 46 -9 13 62 -17 36 -31 69 -31 75 0 5 -16 26 -35 47 -19 21 -35 42 -35 47 0 13 -98 102 -133 122 -17 9 -46 17 -64 17 -28 0 -33 -4 -49 -47z"/>
 <path d="M4156 6991 c-8 -15 -4 -126 5 -137 6 -7 8 -18 5 -23 -4 -5 -2 -13 4 -16 6 -4 8 -16 5 -26 -4 -11 -1 -26 5 -34 7 -8 9 -22 6 -31 -4 -9 -1 -23 5 -30 6 -8 9 -21 5 -29 -3 -9 -2 -23 3 -33 5 -9 14 -29 20 -44 10 -27 12 -28 95 -28 61 0 87 4 96 15 7 8 13 55 15 112 5 128 11 181 26 218 6 17 13 44 15 60 l4 30 -155 1 c-85 1 -157 -1 -159 -5z"/>
 <path d="M4559 6908 c0 -2 -2 -18 -5 -37 -2 -19 -9 -40 -14 -46 -6 -7 -8 -19 -4 -28 3 -8 2 -17 -3 -20 -10 -6 -8 -180 2 -196 3 -6 4 -15 1 -20 -7 -11 29 -43 51 -46 37 -4 84 -18 89 -26 2 -4 11 -6 19 -3 8 3 19 2 26 -2 17 -10 239 -12 246 -1 3 4 11 6 19 3 8 -3 22 -1 32 4 17 10 99 34 117 35 6 0 18 8 28 18 10 10 29 22 43 27 13 5 29 21 34 35 5 14 16 28 24 31 8 3 12 12 10 19 -3 7 0 16 6 20 18 11 -23 35 -72 41 -24 3 -54 6 -68 8 -14 2 -27 4 -30 5 -11 6 -58 11 -107 14 -28 1 -55 5 -59 10 -4 4 -22 5 -40 1 -18 -3 -34 -1 -38 5 -4 6 -18 8 -31 5 -12 -3 -26 -1 -30 5 -3 6 -11 9 -16 6 -5 -4 -15 -3 -21 2 -7 4 -17 8 -23 8 -11 1 -30 8 -85 32 -42 18 -80 51 -80 69 0 11 -19 31 -21 22z"/>
 <path d="M4050 6675 c-62 -34 -112 -55 -129 -55 -10 0 -29 -8 -42 -19 -33 -25 -165 -91 -184 -91 -8 0 -15 -5 -15 -11 0 -5 -21 -20 -47 -31 -27 -11 -51 -26 -55 -32 -10 -15 10 -36 28 -29 8 3 21 0 28 -6 9 -8 28 -10 49 -6 21 4 37 3 41 -4 9 -14 123 -14 132 0 4 6 19 9 36 5 16 -3 37 -2 46 3 9 5 38 17 63 25 26 9 63 31 84 49 37 32 38 34 26 69 -6 20 -11 40 -10 44 1 5 -1 16 -4 24 -3 8 -10 29 -14 47 -8 30 -9 31 -33 18z"/>
 <path d="M5390 6655 c0 -7 -7 -18 -15 -25 -8 -7 -15 -21 -15 -32 0 -11 -13 -33 -30 -48 -16 -15 -30 -33 -30 -39 0 -6 -6 -11 -14 -11 -8 0 -16 -5 -18 -11 -4 -11 -63 -50 -105 -68 -18 -8 -21 -17 -19 -44 2 -19 6 -39 10 -46 4 -6 5 -15 2 -20 -3 -5 0 -13 7 -18 27 -21 57 -20 102 3 25 14 49 22 54 20 5 -3 20 4 34 17 50 42 85 67 96 67 12 0 83 142 87 174 2 22 -11 31 -113 79 -26 12 -33 13 -33 2z"/>
 <path d="M5630 6508 c0 -44 -111 -208 -141 -208 -4 0 -20 -11 -35 -25 -15 -14 -35 -25 -45 -25 -10 0 -21 -5 -24 -10 -9 -15 -84 -52 -94 -46 -4 3 -20 -2 -35 -9 -16 -8 -32 -13 -36 -10 -5 3 -12 1 -15 -5 -4 -6 -20 -8 -39 -5 -24 5 -39 1 -61 -17 -16 -12 -45 -24 -64 -26 -70 -6 -216 -8 -226 -3 -5 3 -14 6 -20 6 -23 2 -83 35 -88 49 -3 8 -25 24 -49 36 -48 23 -69 35 -114 66 -28 20 -37 21 -127 15 l-96 -8 -66 -66 c-62 -65 -138 -117 -168 -117 -8 0 -28 -7 -43 -15 -16 -8 -36 -12 -46 -9 -9 2 -19 0 -23 -6 -3 -5 -21 -10 -40 -10 -19 0 -37 -5 -41 -11 -4 -6 -19 -9 -36 -5 -19 4 -30 1 -34 -8 -3 -7 65 -118 150 -246 86 -127 156 -233 156 -235 0 -2 11 -16 25 -31 14 -15 25 -33 25 -40 0 -8 4 -14 9 -14 13 0 111 -153 111 -173 0 -9 4 -17 10 -17 19 0 119 -225 105 -238 -3 -3 0 -11 5 -18 6 -6 12 -28 14 -46 2 -19 6 -40 10 -46 4 -6 4 -23 0 -37 -4 -14 -1 -31 6 -40 8 -9 10 -28 6 -51 -5 -22 -3 -41 5 -50 8 -9 9 -31 5 -65 -5 -34 -3 -56 5 -65 7 -8 9 -29 6 -49 -3 -19 -1 -37 5 -41 5 -4 7 -19 4 -35 -3 -15 -1 -31 5 -34 5 -4 9 -14 8 -23 -1 -10 1 -25 6 -35 4 -10 5 -21 1 -24 -3 -3 -1 -11 4 -18 5 -7 12 -25 14 -41 2 -16 6 -36 9 -44 4 -8 18 -49 33 -90 34 -97 96 -217 151 -291 24 -33 43 -60 43 -62 0 -8 172 -177 180 -177 5 0 15 -8 22 -17 7 -10 26 -25 41 -33 16 -8 39 -24 52 -36 13 -12 35 -24 49 -28 15 -4 36 -16 48 -28 11 -11 28 -21 37 -22 13 -1 99 -32 196 -71 11 -5 25 -7 32 -6 6 1 14 -3 18 -8 3 -6 12 -8 20 -4 9 3 21 0 29 -6 7 -6 16 -8 19 -4 4 3 13 1 20 -6 8 -6 22 -9 31 -5 9 3 23 1 30 -5 9 -8 28 -10 49 -6 21 4 37 3 41 -4 9 -14 133 -14 142 0 4 6 19 9 37 5 16 -3 36 -1 43 5 8 6 20 9 28 6 7 -3 18 -1 23 4 5 5 22 10 38 13 17 2 39 7 50 11 90 36 118 45 125 40 5 -3 12 -1 15 5 4 6 43 29 87 51 45 22 146 81 225 130 80 49 150 89 155 89 6 0 16 7 22 15 17 22 246 145 271 145 9 0 81 37 166 86 27 15 59 46 59 55 0 5 14 31 31 59 31 51 41 93 41 183 0 76 -4 111 -14 124 -5 7 -7 17 -3 23 4 6 2 17 -4 24 -7 8 -11 18 -10 22 1 5 -3 22 -9 37 -7 15 -11 31 -10 35 1 4 -4 18 -11 30 -7 13 -10 26 -7 29 3 3 -1 18 -8 32 -7 14 -18 37 -24 51 -17 42 -82 179 -133 284 -27 55 -49 103 -49 108 0 4 -7 16 -16 26 -22 24 -194 291 -194 302 0 4 -7 10 -15 14 -8 3 -15 12 -15 20 0 7 -7 16 -15 20 -8 3 -15 12 -15 20 0 7 -11 21 -25 30 -14 9 -25 22 -25 29 0 7 -9 18 -20 25 -11 7 -20 18 -20 25 0 7 -13 23 -30 35 -16 13 -30 28 -30 35 0 7 -20 30 -45 50 -25 21 -45 43 -45 50 0 15 -293 307 -307 307 -6 0 -41 34 -78 75 -37 41 -72 75 -79 75 -6 0 -42 34 -79 75 -38 41 -75 75 -83 75 -8 0 -14 7 -14 15 0 8 -6 15 -13 15 -7 0 -42 29 -77 65 -65 66 -80 75 -80 53z"/>
 <path d="M4280 6454 c7 -7 9 -17 6 -23 -3 -5 3 -19 13 -32 17 -21 21 -22 44 -10 15 8 47 12 81 10 53 -4 69 2 45 16 -6 4 -8 13 -5 20 9 24 -17 32 -107 32 -73 1 -86 -1 -77 -13z"/>
 <path d="M4147 6379 c-16 -16 -37 -29 -47 -29 -10 0 -22 -5 -25 -10 -7 -12 -73 -41 -89 -39 -19 2 -56 -13 -56 -22 0 -6 7 -26 15 -45 8 -20 13 -40 10 -44 -8 -13 14 -23 28 -13 7 5 30 15 53 21 23 7 56 22 75 35 19 13 42 26 52 30 9 3 21 17 27 31 5 13 14 26 21 28 9 3 8 11 -5 30 -9 14 -15 31 -14 38 6 24 -17 19 -45 -11z"/>
 <path d="M4580 6402 c0 -5 7 -15 15 -22 8 -7 15 -8 15 -2 0 5 -7 15 -15 22 -8 7 -15 8 -15 2z"/>
 <path d="M5023 6319 c-7 -7 -55 -13 -120 -14 -166 -3 -163 -2 -115 -55 26 -30 31 -31 115 -34 63 -3 97 1 118 11 16 8 33 12 39 8 5 -3 10 1 10 9 0 8 -5 18 -11 21 -6 4 -8 13 -5 21 6 16 -2 44 -13 44 -4 0 -12 -5 -18 -11z"/>
 <path d="M3603 6220 c12 -22 30 -40 39 -40 9 0 19 -4 22 -9 3 -5 15 -7 26 -4 11 3 26 0 34 -6 7 -6 21 -8 30 -5 10 4 28 1 41 -6 35 -19 59 -6 50 28 -3 15 -13 38 -22 51 -14 22 -19 23 -94 19 -44 -3 -82 -1 -85 4 -3 4 -18 8 -34 8 l-28 0 21 -40z"/>
 <path d="M5785 3180 c-22 -5 -70 -6 -107 -3 -46 4 -72 2 -82 -6 -10 -8 -27 -10 -46 -6 -19 4 -36 2 -45 -5 -8 -6 -23 -9 -35 -5 -12 4 -27 1 -35 -5 -8 -7 -22 -9 -31 -6 -9 4 -23 1 -30 -5 -8 -6 -20 -9 -29 -6 -8 4 -31 -1 -51 -9 -20 -8 -43 -13 -51 -9 -9 3 -22 0 -30 -6 -7 -7 -16 -9 -20 -5 -3 3 -17 -1 -31 -10 -13 -8 -26 -13 -29 -10 -4 3 -11 2 -17 -3 -6 -5 -62 -25 -123 -46 -62 -20 -124 -48 -137 -60 -14 -13 -36 -27 -48 -31 -13 -4 -39 -20 -58 -35 -19 -16 -39 -29 -45 -29 -6 0 -16 -9 -23 -20 -7 -11 -17 -20 -23 -20 -12 0 -99 -84 -99 -96 0 -3 -10 -16 -22 -28 -13 -12 -30 -34 -38 -49 -8 -16 -24 -39 -36 -52 -12 -13 -19 -27 -15 -30 3 -4 -3 -13 -13 -20 -10 -8 -19 -22 -20 -32 -2 -28 -46 -152 -56 -158 -5 -3 -7 -12 -3 -20 3 -9 0 -21 -6 -29 -6 -7 -8 -16 -4 -19 3 -4 1 -12 -5 -19 -11 -14 -11 -12 -18 -181 -4 -81 -2 -123 6 -132 7 -8 9 -23 5 -35 -4 -12 -1 -27 5 -35 6 -8 9 -19 5 -25 -4 -6 -2 -17 4 -24 7 -8 11 -18 10 -22 -1 -5 0 -16 4 -24 3 -8 17 -53 32 -100 15 -47 49 -132 76 -189 27 -57 49 -108 49 -112 0 -5 7 -17 16 -27 15 -17 129 -177 149 -209 6 -9 25 -30 43 -46 17 -16 32 -34 32 -41 0 -14 61 -76 75 -76 5 0 26 -18 46 -40 21 -22 42 -40 48 -40 6 0 15 -9 21 -20 6 -11 19 -20 29 -20 10 0 30 -11 45 -25 33 -30 101 -67 109 -58 4 3 19 -3 34 -13 15 -10 37 -19 48 -20 11 -1 34 -8 50 -15 17 -7 34 -11 38 -10 4 1 17 -5 29 -13 11 -8 26 -12 33 -10 7 3 16 1 19 -5 4 -6 13 -8 21 -4 9 3 21 0 29 -6 7 -6 16 -8 19 -5 3 4 14 3 24 -1 10 -4 28 -7 40 -6 11 1 24 -3 28 -8 3 -6 17 -8 31 -5 13 3 31 1 38 -5 8 -7 25 -9 40 -5 14 3 34 3 43 -1 26 -11 333 -13 339 -3 4 5 23 7 44 3 24 -4 41 -2 45 5 5 7 20 9 40 6 20 -4 36 -2 40 4 4 6 17 10 28 8 12 -1 28 1 34 5 7 4 34 10 60 12 27 2 50 4 53 6 3 1 10 3 15 4 6 1 23 7 38 13 15 7 31 11 35 10 4 -1 14 2 22 5 8 3 44 17 80 30 85 32 161 70 232 118 31 22 60 39 64 39 3 0 15 11 26 25 11 14 23 25 28 25 11 0 230 220 230 231 0 4 11 16 25 27 14 11 25 25 25 31 0 6 9 16 20 23 11 7 20 19 20 26 0 7 7 15 15 18 8 4 15 13 15 20 0 8 7 17 15 20 8 4 15 11 15 18 0 6 12 22 25 35 14 13 25 27 25 32 0 5 35 61 78 125 42 63 81 123 87 132 5 9 20 31 32 49 13 17 23 34 23 36 0 3 27 51 60 106 41 70 62 117 67 149 9 75 10 206 0 219 -5 7 -6 20 -3 29 4 9 1 23 -5 31 -7 7 -9 16 -6 19 3 3 -8 32 -24 65 -17 33 -27 64 -24 68 3 5 -2 16 -11 25 -20 21 -84 116 -84 126 0 4 -7 10 -15 14 -8 3 -15 11 -15 19 0 16 -81 97 -97 97 -6 0 -20 10 -30 23 -10 13 -26 26 -35 30 -10 3 -18 11 -18 17 0 5 -5 10 -10 10 -14 0 -178 98 -186 111 -3 5 -15 9 -27 9 -12 0 -37 9 -55 20 -18 11 -40 20 -50 20 -10 0 -23 5 -30 12 -6 6 -22 12 -34 14 -13 1 -36 8 -53 15 -16 6 -40 13 -52 15 -12 1 -37 10 -57 19 -19 9 -54 18 -78 19 -25 2 -54 8 -65 14 -11 6 -30 8 -41 5 -12 -3 -28 -1 -35 5 -7 6 -23 9 -35 5 -12 -3 -29 0 -37 7 -8 6 -23 9 -35 5 -12 -4 -27 -1 -35 5 -9 7 -26 9 -45 5 -19 -4 -36 -2 -45 5 -9 7 -50 11 -112 10 -54 -1 -163 1 -243 4 -80 2 -163 1 -185 -4z m337 -247 c20 -10 46 -30 58 -45 52 -67 -23 -95 -126 -46 -30 14 -48 17 -57 11 -6 -6 -33 -16 -59 -24 -27 -7 -48 -17 -48 -22 0 -4 -15 -14 -34 -22 -34 -14 -34 -15 -41 -97 -10 -119 -6 -140 26 -144 33 -3 89 -31 89 -44 0 -6 9 -10 20 -10 29 0 78 -72 76 -112 -1 -28 -6 -33 -36 -39 -31 -7 -60 0 -145 36 -28 12 -128 14 -141 3 -7 -5 -16 -8 -20 -6 -5 1 -30 -7 -55 -19 -64 -29 -111 -25 -123 9 -8 22 -5 34 17 67 15 23 33 41 41 41 8 0 16 6 19 14 7 19 113 70 127 61 7 -5 10 26 8 102 l-3 108 -40 19 c-22 10 -51 26 -65 34 -14 9 -29 17 -35 17 -5 1 -23 7 -39 13 -30 13 -28 14 -124 -39 -49 -26 -70 -20 -87 25 -8 24 -5 30 30 61 21 19 47 35 56 35 10 0 21 5 24 11 4 6 13 8 21 5 8 -3 23 -1 33 6 11 7 26 8 37 3 11 -5 34 -9 51 -10 18 -1 51 -15 73 -30 22 -15 48 -29 58 -30 9 -1 25 -5 35 -9 10 -5 23 -3 32 4 9 7 18 10 21 7 3 -3 14 3 25 14 10 10 27 19 36 19 9 0 24 6 32 14 42 36 170 41 233 9z m213 -573 c4 -6 15 -8 24 -5 22 7 111 -63 111 -87 0 -9 8 -24 18 -34 20 -20 43 -90 36 -109 -3 -7 0 -16 6 -20 6 -4 8 -16 5 -26 -4 -11 -2 -25 3 -32 13 -15 12 -128 -1 -144 -5 -7 -6 -24 -3 -38 4 -14 4 -31 0 -37 -4 -6 -8 -24 -9 -39 -2 -16 -17 -59 -35 -96 -65 -137 -144 -203 -247 -207 -49 -2 -61 1 -97 29 -42 32 -98 120 -91 142 2 7 0 15 -6 19 -6 3 -8 12 -5 20 3 7 1 16 -4 19 -14 8 -13 92 1 100 6 4 8 13 5 21 -7 19 22 99 45 120 10 9 19 23 19 30 0 6 16 26 35 43 19 17 35 33 35 36 0 2 14 27 31 55 27 44 30 57 25 95 -4 24 -3 52 2 62 5 10 16 31 23 47 17 36 61 57 74 36z m-1057 -56 c13 -13 21 -27 18 -33 -4 -5 -2 -12 3 -15 5 -4 7 -22 4 -41 -3 -20 -1 -41 6 -49 6 -8 14 -29 16 -47 2 -18 11 -37 20 -42 9 -5 20 -20 25 -33 6 -14 18 -28 27 -31 23 -9 43 -29 43 -42 0 -6 11 -18 25 -27 28 -18 69 -117 60 -144 -3 -10 -1 -21 5 -25 13 -8 13 -82 0 -90 -6 -4 -8 -11 -4 -16 20 -33 -77 -189 -117 -189 -9 0 -22 -7 -29 -15 -7 -8 -23 -15 -36 -15 -41 0 -134 41 -150 66 -9 13 -21 24 -28 24 -22 1 -85 107 -117 198 -10 30 -18 57 -18 60 1 4 0 10 -1 15 -16 47 -13 269 3 295 5 6 6 16 2 21 -9 16 35 120 56 131 10 6 19 17 19 24 0 17 63 48 83 40 8 -3 18 -1 21 5 9 13 36 3 64 -25z"/>
 <path d="M6205 1962 c-42 -29 -83 -92 -84 -128 -1 -31 46 -111 80 -136 39 -29 77 -29 108 0 14 13 36 28 49 33 12 5 22 15 22 23 0 8 8 21 18 28 11 7 23 22 29 33 20 40 -3 119 -39 136 -13 5 -34 16 -48 24 -39 23 -90 18 -135 -13z m98 -73 c30 -16 35 -26 33 -62 -1 -23 -9 -36 -29 -47 -24 -13 -29 -13 -54 2 -19 11 -28 25 -29 46 -2 34 3 44 31 60 25 14 22 14 48 1z"/>
 <path d="M5235 1945 c-38 -13 -116 -88 -114 -110 0 -5 14 -30 30 -55 16 -25 32 -52 35 -60 8 -22 72 -52 127 -60 26 -3 47 -4 47 -1 0 3 18 25 40 49 22 24 38 47 35 52 -3 5 -1 17 5 27 9 14 6 29 -17 73 -22 43 -38 60 -73 78 -51 25 -61 26 -115 7z m102 -103 c20 -27 15 -46 -17 -77 -29 -28 -32 -29 -58 -14 -38 21 -43 80 -10 103 26 19 65 13 85 -12z"/>
 </g>

</svg>